<svg xmlns="http://www.w3.org/2000/svg" xmlns:xlink="http://www.w3.org/1999/xlink" width="500" zoomAndPan="magnify" viewBox="0 0 375 374.999991" height="500" preserveAspectRatio="xMidYMid meet" version="1.0"><defs><clipPath id="73ba5adce2"><path d="M 82.265625 0 L 293 0 L 293 375 L 82.265625 375 Z M 82.265625 0 " clip-rule="nonzero"/></clipPath></defs><g clip-path="url(#73ba5adce2)"><path fill="#ffffff" d="M 247.71875 373.78125 C 246.757812 372.71875 247.554688 370.882812 249.8125 368.941406 C 251.363281 367.601562 254.53125 365.554688 256.832031 364.398438 C 258.742188 363.4375 263.683594 361.621094 264.402344 361.609375 C 265.597656 361.585938 265.378906 361.152344 261.964844 356.640625 C 254.246094 346.441406 238.65625 322.0625 230.132812 306.863281 C 229.078125 304.984375 228.054688 303.382812 227.859375 303.308594 C 227.660156 303.234375 227.328125 302.765625 227.113281 302.273438 C 225.164062 297.707031 222.089844 290.210938 220.769531 286.777344 C 219.878906 284.464844 217.621094 278.621094 215.753906 273.789062 C 213.886719 268.957031 211.535156 262.613281 210.523438 259.6875 C 209.515625 256.761719 208.605469 254.285156 208.5 254.183594 C 208.398438 254.078125 206.773438 254.664062 204.886719 255.480469 C 203 256.296875 201.410156 256.921875 201.351562 256.863281 C 201.296875 256.804688 201.398438 256.457031 201.582031 256.085938 C 201.84375 255.554688 202.589844 255.121094 205.128906 254.023438 L 208.34375 252.632812 L 208.503906 250.039062 C 208.59375 248.609375 208.738281 244.9375 208.824219 241.875 C 209.273438 226.027344 210.757812 216.207031 216.171875 193.265625 C 219.132812 180.714844 221.527344 172.371094 225.640625 160.226562 L 227.949219 153.410156 L 207.632812 153.382812 C 185.957031 153.359375 185.332031 153.351562 158.371094 151.8125 C 148.980469 151.277344 138.554688 150.722656 135.199219 150.582031 C 131.839844 150.441406 128.558594 150.222656 127.898438 150.097656 C 126.730469 149.875 126.683594 149.890625 125.839844 150.761719 C 123.703125 152.949219 119.210938 154.097656 112.601562 154.140625 C 108.070312 154.167969 106.503906 153.9375 104.4375 152.933594 C 101.605469 151.558594 101.820312 149.050781 104.933594 147.226562 C 106.484375 146.320312 110.457031 145.382812 113.46875 145.214844 C 114.898438 145.132812 116.183594 144.976562 116.328125 144.867188 C 116.609375 144.644531 122.105469 145.21875 123.566406 145.625 C 125.070312 146.042969 126.433594 146.945312 126.867188 147.820312 C 127.09375 148.269531 127.328125 148.6875 127.386719 148.75 C 127.449219 148.808594 131.4375 149.019531 136.253906 149.222656 C 141.070312 149.425781 147.792969 149.757812 151.195312 149.960938 C 181.644531 151.792969 191.097656 152.113281 211.933594 152.011719 L 227.886719 151.941406 L 225.660156 151.09375 C 222.792969 150.003906 218.589844 148.183594 218.316406 147.90625 C 217.996094 147.589844 218.355469 146.867188 218.824219 146.871094 C 219.046875 146.871094 221.402344 147.75 224.054688 148.816406 C 228.179688 150.476562 228.902344 150.699219 229.050781 150.359375 C 230.507812 147.003906 234.070312 137.472656 233.902344 137.363281 C 228.664062 134.019531 224.796875 130.621094 221.96875 126.886719 C 220.265625 124.640625 217.628906 119.765625 216.519531 116.816406 C 214.9375 112.609375 214.289062 108.394531 214.300781 102.339844 C 214.300781 97.78125 214.746094 94.859375 215.945312 91.328125 C 217.667969 86.289062 221.433594 80.945312 225.242188 78.132812 C 227.546875 76.4375 229.164062 75.679688 234.570312 73.753906 C 242.410156 70.96875 243.019531 70.835938 248.175781 70.765625 C 250.625 70.734375 253.285156 70.8125 254.082031 70.945312 C 254.882812 71.078125 255.578125 71.140625 255.632812 71.089844 C 255.773438 70.949219 249.949219 67.390625 247.289062 65.988281 C 244.570312 64.558594 241.105469 63.183594 239.082031 62.738281 C 236.382812 62.148438 236.613281 61.152344 239.390625 61.367188 C 243.519531 61.691406 249.695312 64.867188 262.363281 73.195312 C 263.769531 74.121094 265.023438 74.875 265.152344 74.875 C 265.28125 74.875 263.472656 72.589844 261.132812 69.800781 C 256.933594 64.785156 253.257812 61.269531 252.214844 61.269531 C 251.773438 61.269531 251.433594 60.933594 251.652344 60.71875 C 251.722656 60.648438 252.523438 60.75 253.429688 60.9375 C 255.296875 61.332031 256.851562 62.234375 258.347656 63.792969 C 259.542969 65.046875 268.808594 76.214844 269.414062 77.140625 C 269.644531 77.488281 270.949219 78.753906 272.308594 79.949219 C 278.355469 85.253906 282.132812 91.839844 283.960938 100.253906 C 284.703125 103.691406 284.699219 109.550781 283.960938 113.15625 C 282.542969 119.957031 279.039062 126.308594 273.8125 131.5625 C 268.523438 136.875 262.628906 139.917969 255.113281 141.222656 C 249.492188 142.191406 242.972656 141.414062 237.574219 139.125 L 235.007812 138.039062 L 234.335938 140.039062 C 233.964844 141.144531 233.183594 143.210938 232.597656 144.644531 C 228.546875 154.550781 222.875 172.308594 219.53125 185.585938 C 215.472656 201.667969 212.921875 214.09375 211.710938 223.683594 C 210.761719 231.183594 209.878906 245.035156 209.988281 250.648438 C 210.042969 253.308594 210.085938 253.488281 211.769531 258.441406 C 214.925781 267.703125 227.773438 300.761719 228.296875 300.953125 C 228.542969 301.042969 229.996094 303.464844 233.359375 309.40625 C 235.972656 314.015625 244.375 327.878906 247.074219 332.03125 C 249.613281 335.945312 257.246094 347.457031 259.375 350.59375 C 261.597656 353.863281 265.992188 359.792969 266.933594 360.792969 C 267.566406 361.457031 267.632812 361.648438 267.367188 361.964844 C 267.195312 362.175781 266.824219 362.347656 266.542969 362.347656 C 264.78125 362.347656 258.273438 364.683594 255.375 366.355469 C 251.929688 368.347656 248.558594 371.179688 248.558594 372.089844 C 248.558594 373.636719 251.652344 372.933594 257.265625 370.117188 C 260.699219 368.390625 262.789062 366.917969 265.378906 364.390625 C 266.675781 363.132812 267.816406 362.101562 267.917969 362.101562 C 268.363281 362.101562 268.03125 363.003906 267.175781 364.125 C 265.386719 366.472656 261.542969 369.332031 257.335938 371.441406 C 252.355469 373.941406 248.6875 374.828125 247.730469 373.769531 Z M 120.292969 152.121094 C 123.390625 151.449219 125.5 150.292969 125.175781 149.445312 C 125.101562 149.253906 125.175781 148.945312 125.328125 148.753906 C 126.015625 147.921875 122.199219 146.273438 119 146.019531 C 113.933594 145.621094 105.964844 147.226562 104.320312 148.976562 C 103.007812 150.375 104.351562 151.75 107.710938 152.453125 C 110.128906 152.957031 117.292969 152.765625 120.292969 152.121094 Z M 256.015625 139.210938 C 262.796875 137.902344 268.195312 135.136719 272.683594 130.675781 C 277.410156 125.976562 281.390625 118.425781 282.136719 112.738281 C 282.234375 111.988281 282.308594 109.371094 282.300781 106.921875 C 282.277344 102.722656 282.242188 102.304688 281.492188 99.5 C 280.242188 94.828125 278.964844 91.910156 276.542969 88.246094 C 271.992188 81.355469 262.859375 74.988281 255.003906 73.230469 C 252.519531 72.675781 251.515625 72.585938 247.554688 72.566406 C 243.589844 72.539062 242.585938 72.617188 240.011719 73.148438 C 237.054688 73.753906 237.046875 73.757812 238.324219 73.894531 C 241.125 74.195312 240.203125 74.921875 236.738281 75.152344 C 229.347656 75.640625 223.089844 80.003906 219.359375 87.269531 C 216.558594 92.71875 215.804688 96.054688 215.839844 102.769531 C 215.867188 107.863281 216.265625 110.808594 217.425781 114.46875 C 218.898438 119.121094 222.128906 124.554688 225.609375 128.230469 C 228.785156 131.585938 234.1875 135.582031 235.191406 135.324219 C 235.535156 135.230469 235.679688 135.324219 235.679688 135.609375 C 235.679688 136.183594 239.121094 137.75 242.238281 138.589844 C 246.519531 139.746094 251.972656 139.992188 256.015625 139.210938 Z M 254.335938 129.746094 C 253.644531 128.898438 252.953125 127.972656 252.804688 127.6875 C 252.492188 127.09375 249.074219 124.144531 246.195312 121.984375 C 241.550781 118.496094 234.886719 114.859375 230.320312 113.328125 C 227.445312 112.363281 224.824219 111.960938 221.894531 112.035156 C 220.773438 112.0625 219.777344 112.007812 219.679688 111.910156 C 219.582031 111.8125 219.703125 111.414062 219.921875 111.019531 C 220.15625 110.628906 220.34375 110.066406 220.34375 109.765625 C 220.34375 108.050781 223.09375 101.832031 226.019531 96.941406 C 226.699219 95.804688 227.246094 94.804688 227.234375 94.714844 C 227.078125 93.53125 227.984375 93.511719 230.304688 94.640625 C 235.636719 97.234375 240.421875 101.695312 247.015625 110.226562 C 254.1875 119.507812 256.859375 124.839844 256.660156 129.476562 C 256.597656 130.953125 256.523438 131.175781 256.089844 131.234375 C 255.742188 131.28125 255.222656 130.839844 254.335938 129.746094 Z M 255.320312 127.765625 C 255.242188 127.324219 255.066406 126.570312 254.925781 126.097656 C 254.652344 125.171875 252.390625 120.496094 251.96875 119.988281 C 251.777344 119.757812 251.417969 120.011719 250.511719 120.972656 L 249.304688 122.261719 L 249.976562 122.835938 C 251.808594 124.398438 254.714844 127.484375 254.839844 127.996094 C 255.066406 128.878906 255.480469 128.679688 255.320312 127.765625 Z M 249.808594 120.152344 C 250.40625 119.332031 250.894531 118.558594 250.894531 118.433594 C 250.894531 118.082031 248.320312 114.46875 248.066406 114.46875 C 247.941406 114.46875 247.757812 114.71875 247.664062 115.019531 C 247.519531 115.460938 247.691406 115.742188 248.574219 116.5 C 249.46875 117.269531 249.613281 117.507812 249.394531 117.855469 C 248.964844 118.535156 248.703125 118.488281 247.589844 117.53125 L 246.53125 116.628906 L 245.558594 117.582031 C 245.019531 118.105469 244.609375 118.609375 244.648438 118.695312 C 244.730469 118.910156 248.371094 121.644531 248.570312 121.644531 C 248.65625 121.644531 249.210938 120.972656 249.808594 120.152344 Z M 244.585938 117.253906 C 244.929688 116.746094 245.289062 116.203125 245.390625 116.039062 C 245.511719 115.859375 245.117188 115.410156 244.324219 114.828125 L 243.066406 113.90625 L 241.984375 115.113281 C 241.386719 115.78125 240.894531 116.382812 240.886719 116.449219 C 240.863281 116.621094 243.414062 118.164062 243.722656 118.167969 C 243.859375 118.167969 244.25 117.761719 244.585938 117.253906 Z M 241.0625 114.59375 L 242.117188 113.261719 L 241.308594 112.660156 C 239.96875 111.660156 238.398438 110.679688 238.300781 110.785156 C 238.25 110.839844 237.792969 111.4375 237.28125 112.121094 C 236.773438 112.800781 236.25 113.488281 236.121094 113.652344 C 235.953125 113.867188 236.429688 114.222656 237.828125 114.941406 C 238.890625 115.484375 239.820312 115.929688 239.886719 115.925781 C 239.957031 115.925781 240.484375 115.324219 241.0625 114.59375 Z M 247.167969 113.996094 C 247.582031 113.539062 247.554688 113.464844 246.5625 112.203125 C 245.992188 111.476562 245.449219 110.855469 245.363281 110.824219 C 245.277344 110.789062 244.941406 111.171875 244.617188 111.675781 L 244.027344 112.582031 L 245.113281 113.515625 C 246.359375 114.597656 246.578125 114.644531 247.167969 113.996094 Z M 236.070312 111.832031 L 237.246094 110.183594 L 236.589844 109.667969 C 236.230469 109.382812 235.5 108.902344 234.972656 108.601562 L 234.007812 108.054688 L 233.082031 109.46875 C 232.570312 110.246094 231.929688 111.128906 231.660156 111.429688 L 231.160156 111.976562 L 231.75 112.226562 C 232.207031 112.421875 234.640625 113.394531 234.855469 113.464844 C 234.878906 113.464844 235.425781 112.738281 236.070312 111.832031 Z M 243.984375 110.726562 C 244.179688 110.351562 244.339844 109.867188 244.339844 109.648438 C 244.339844 109.335938 241.945312 106.058594 241.71875 106.058594 C 241.589844 106.058594 239.390625 109.304688 239.40625 109.472656 C 239.40625 109.566406 240.21875 110.15625 241.199219 110.785156 C 243.117188 112.015625 243.324219 112.007812 243.984375 110.726562 Z M 230.867188 111.191406 C 230.957031 110.886719 231.464844 109.960938 231.996094 109.132812 C 232.527344 108.308594 232.960938 107.5625 232.960938 107.484375 C 232.960938 107.402344 232.1875 106.890625 231.234375 106.34375 L 229.515625 105.351562 L 228.699219 106.679688 C 228.253906 107.410156 227.582031 108.570312 227.207031 109.261719 C 226.539062 110.488281 225.78125 110.929688 225.789062 110.078125 C 225.789062 109.472656 226.566406 107.839844 227.625 106.195312 L 228.515625 104.796875 L 227.335938 104.273438 C 226.6875 103.984375 225.652344 103.703125 225.035156 103.640625 C 223.992188 103.539062 223.886719 103.585938 223.582031 104.238281 C 222.941406 105.609375 222.082031 108.359375 221.929688 109.515625 L 221.773438 110.683594 L 224.582031 110.839844 C 226.128906 110.921875 227.949219 111.152344 228.628906 111.347656 C 230.363281 111.847656 230.675781 111.824219 230.867188 111.191406 Z M 239.628906 107.015625 C 240.546875 105.707031 240.808594 105.15625 240.640625 104.851562 C 240.210938 104.070312 237.847656 101.972656 237.738281 102.277344 C 237.675781 102.4375 236.996094 103.546875 236.226562 104.730469 C 235.460938 105.917969 234.945312 106.925781 235.082031 106.972656 C 235.214844 107.015625 235.882812 107.433594 236.558594 107.902344 C 237.234375 108.371094 237.921875 108.757812 238.085938 108.765625 C 238.253906 108.765625 238.945312 107.988281 239.628906 107.015625 Z M 235.496094 103.875 C 236.277344 102.683594 236.914062 101.542969 236.90625 101.34375 C 236.882812 101 234.191406 98.605469 233.789062 98.582031 C 233.554688 98.582031 230.511719 103.578125 230.5 104.003906 C 230.5 104.292969 233.34375 106.050781 233.824219 106.050781 C 233.960938 106.050781 234.714844 105.070312 235.496094 103.875 Z M 231.097656 100.609375 C 232.632812 98.089844 232.734375 97.835938 232.382812 97.441406 C 231.78125 96.785156 228.886719 95.316406 228.488281 95.46875 C 228.183594 95.585938 224.546875 101.753906 224.546875 102.15625 C 224.546875 102.226562 225.070312 102.371094 225.707031 102.464844 C 226.34375 102.5625 227.375 102.839844 227.996094 103.082031 C 228.617188 103.328125 229.191406 103.492188 229.277344 103.441406 C 229.359375 103.390625 230.175781 102.117188 231.097656 100.609375 Z M 247.152344 105.542969 C 245.550781 105.078125 244.007812 102.546875 244.457031 101.125 C 244.707031 100.34375 245.148438 100.628906 245.605469 101.855469 C 245.820312 102.445312 246.347656 103.238281 246.769531 103.617188 C 247.527344 104.296875 249.535156 105.042969 250.753906 105.097656 C 251.1875 105.125 250.988281 105.230469 250.152344 105.445312 C 248.683594 105.824219 248.183594 105.839844 247.152344 105.542969 Z M 218.117188 104.449219 C 217.523438 102.660156 218.402344 98.289062 219.980469 95.15625 C 220.464844 94.191406 221.003906 93.441406 221.210938 93.441406 C 221.683594 93.441406 221.703125 93.34375 220.835938 95.503906 C 219.847656 97.976562 219.414062 99.777344 219.144531 102.550781 C 218.882812 105.214844 218.5625 105.804688 218.117188 104.449219 Z M 248.675781 101.566406 C 248.050781 101.074219 248.007812 100.921875 248.101562 99.648438 C 248.285156 97.21875 249.726562 95.09375 252.347656 93.402344 C 253.519531 92.644531 254.054688 92.449219 254.976562 92.449219 C 256.554688 92.449219 257.085938 93.039062 257.070312 94.789062 C 257.027344 99.054688 251.332031 103.65625 248.675781 101.566406 Z M 261.804688 95.605469 C 262.210938 93.710938 262.25 90.574219 261.878906 89.511719 C 261.722656 89.066406 261.292969 88.566406 260.886719 88.355469 C 260.007812 87.902344 259.976562 87.5625 260.792969 87.359375 C 261.582031 87.160156 262.492188 87.738281 263.074219 88.804688 C 263.390625 89.390625 263.511719 90.171875 263.511719 91.714844 C 263.511719 93.605469 263.429688 93.996094 262.695312 95.488281 C 262.246094 96.402344 261.785156 97.152344 261.671875 97.152344 C 261.5625 97.152344 261.621094 96.457031 261.804688 95.605469 Z M 239.378906 93.085938 C 238.757812 92.914062 237.339844 92.632812 236.230469 92.460938 C 233.980469 92.113281 233.34375 91.792969 233.59375 91.144531 C 233.851562 90.46875 234.640625 90.417969 237.230469 90.917969 L 239.640625 91.382812 L 238.9375 90.125 C 237.394531 87.371094 236.632812 84.359375 237.308594 83.683594 C 237.859375 83.136719 238.0625 83.351562 238.40625 84.84375 C 238.792969 86.53125 240.152344 89.394531 241.246094 90.824219 C 242.257812 92.152344 242.3125 92.53125 241.5625 93.054688 C 240.929688 93.5 240.882812 93.5 239.378906 93.085938 Z M 230.101562 89.867188 C 229.121094 88.882812 229.476562 86.691406 230.722656 86.027344 C 231.402344 85.664062 231.554688 86.089844 231.050781 86.96875 C 230.625 87.710938 230.699219 88.53125 231.34375 90.039062 C 231.625 90.699219 230.828125 90.585938 230.101562 89.867188 Z M 223.558594 86.152344 C 223.558594 85.597656 226.457031 82.621094 228.046875 81.546875 C 230.042969 80.1875 233.074219 79.050781 232.585938 79.839844 C 232.503906 79.976562 232.078125 80.242188 231.644531 80.425781 C 230.230469 81.027344 226.558594 83.828125 225.398438 85.183594 C 224.285156 86.492188 223.558594 86.871094 223.558594 86.152344 Z M 246.21875 85.441406 C 245.882812 83.648438 242.5625 81.070312 240.582031 81.070312 C 239.8125 81.070312 239.417969 80.621094 239.917969 80.304688 C 241.320312 79.417969 245.195312 80.945312 246.527344 82.910156 C 247.246094 83.96875 247.53125 85.726562 247.035156 86.042969 C 246.484375 86.390625 246.382812 86.316406 246.21875 85.441406 Z M 175.9375 351.050781 C 175.664062 350.980469 174.226562 350.539062 172.742188 350.0625 C 168.171875 348.59375 166.074219 346.417969 163.089844 340.046875 C 160.839844 335.246094 160.109375 332.21875 159.722656 326.101562 C 158.972656 314.199219 161.917969 302.816406 168.179688 293.445312 C 169.121094 292.027344 170.628906 290.210938 171.671875 289.210938 C 173.214844 287.75 173.84375 287.34375 175.550781 286.691406 C 178.257812 285.65625 180.539062 285.328125 183.871094 285.488281 C 189.402344 285.753906 194.417969 288.128906 198.472656 292.394531 C 203.699219 297.902344 205.792969 304.105469 205.796875 314.117188 C 205.796875 318.847656 205.601562 320.707031 204.503906 326.484375 C 203.40625 332.277344 200.925781 338.671875 198.546875 341.855469 C 198 342.585938 197.382812 343.539062 197.175781 343.976562 C 196.472656 345.449219 194.5625 346.925781 191.359375 348.472656 C 187.898438 350.144531 187.261719 350.34375 183.695312 350.851562 C 181.261719 351.199219 177.003906 351.304688 175.9375 351.050781 Z M 184.214844 349.078125 C 185.136719 348.96875 185.410156 348.863281 185.085938 348.75 C 184.726562 348.625 184.953125 348.496094 185.960938 348.261719 C 188.886719 347.582031 193.4375 344.917969 196.007812 342.386719 C 197.332031 341.082031 197.6875 340.535156 198.183594 339.011719 C 198.296875 338.65625 198.40625 338.617188 198.667969 338.828125 C 198.9375 339.054688 199.195312 338.648438 200.003906 336.691406 C 203.335938 328.621094 204.804688 317.820312 203.757812 308.988281 C 202.578125 299.027344 196.90625 291.179688 188.742188 288.214844 C 187.070312 287.605469 186.679688 287.53125 186.726562 287.832031 C 186.8125 288.371094 186.511719 288.820312 184.433594 291.277344 C 175.914062 301.332031 165.382812 314.683594 164.085938 317.070312 C 163.03125 319.011719 163.023438 318.261719 164.085938 315.953125 C 165.507812 312.832031 167.234375 310.441406 174.691406 301.25 C 179.683594 295.097656 185.214844 288.539062 185.996094 287.851562 C 186.449219 287.453125 186.441406 287.433594 185.78125 287.304688 C 185.40625 287.234375 184.421875 287.105469 183.59375 287.019531 C 182.140625 286.867188 182.074219 286.886719 181.636719 287.5625 C 181.386719 287.949219 179.148438 290.710938 176.65625 293.707031 C 171.328125 300.113281 164.40625 309.046875 163.480469 310.710938 C 163.125 311.355469 162.710938 311.882812 162.558594 311.886719 C 161.917969 311.886719 161.375 318.144531 161.550781 323.515625 C 161.722656 328.65625 162.144531 331.511719 163.226562 334.773438 C 164 337.097656 167.070312 343.554688 167.410156 343.554688 C 167.515625 343.554688 168.234375 344.335938 169 345.285156 C 170.308594 346.90625 171.613281 347.929688 171.949219 347.59375 C 172.027344 347.515625 173.070312 347.757812 174.265625 348.132812 C 177.378906 349.117188 181.023438 349.464844 184.222656 349.078125 Z M 178.535156 346.398438 C 178.535156 346.003906 182.59375 340.710938 185.792969 336.933594 C 190.484375 331.402344 195.476562 325.132812 198.804688 320.601562 C 201.210938 317.320312 202.035156 316.523438 202.035156 317.476562 C 202.035156 318.683594 192.523438 331.066406 184.925781 339.75 C 179.929688 345.460938 178.535156 346.914062 178.535156 346.398438 Z M 173.339844 345.261719 C 173.339844 344.84375 175.476562 341.457031 177.152344 339.226562 C 177.96875 338.136719 180.910156 334.410156 183.683594 330.945312 C 191.117188 321.671875 198.640625 311.441406 199.476562 309.46875 C 199.855469 308.582031 200.4375 308.214844 200.835938 308.613281 C 201.167969 308.941406 200.71875 309.796875 198.25 313.496094 C 195.832031 317.125 193.203125 320.777344 190.421875 324.382812 C 187.472656 328.195312 178.269531 339.605469 176.382812 341.777344 C 175.515625 342.773438 174.519531 344.023438 174.164062 344.558594 C 173.488281 345.582031 173.339844 345.710938 173.339844 345.261719 Z M 184.71875 345.300781 C 184.71875 345.171875 184.828125 345 184.964844 344.917969 C 185.097656 344.835938 185.96875 343.742188 186.898438 342.492188 C 187.824219 341.238281 190.847656 337.710938 193.613281 334.648438 C 196.378906 331.585938 199.101562 328.46875 199.660156 327.722656 C 200.53125 326.554688 200.683594 326.4375 200.75 326.910156 C 200.925781 328.113281 199.785156 329.613281 193.175781 336.875 C 190.597656 339.703125 184.964844 345.535156 184.800781 345.535156 C 184.753906 345.535156 184.71875 345.429688 184.71875 345.300781 Z M 191.933594 342.867188 C 192.140625 342.386719 198.695312 336.378906 198.769531 336.605469 C 198.929688 337.078125 197.960938 338.109375 195.046875 340.589844 C 192.320312 342.910156 191.734375 343.335938 191.933594 342.867188 Z M 169.640625 341.722656 C 169.613281 341.347656 171.347656 338.351562 172.800781 336.257812 C 173.550781 335.167969 176.839844 330.828125 180.101562 326.609375 C 183.367188 322.390625 186.722656 318.050781 187.558594 316.960938 C 188.398438 315.871094 191.117188 312.171875 193.605469 308.734375 C 197.527344 303.320312 198.820312 301.820312 198.820312 302.699219 C 198.820312 303.734375 190.640625 315.03125 179.84375 328.921875 C 169.519531 342.195312 169.65625 342.019531 169.640625 341.722656 Z M 166.921875 336.746094 C 166.890625 335.617188 168.941406 332.605469 175.578125 324.011719 C 184.21875 312.832031 193.378906 300.105469 193.378906 299.277344 C 193.378906 298.8125 194.367188 297.789062 194.816406 297.789062 C 195.628906 297.789062 194.875 299.324219 191.824219 303.886719 C 188.433594 308.953125 184.257812 314.714844 179.292969 321.167969 C 175.695312 325.84375 168.195312 335.597656 167.476562 336.535156 C 166.996094 337.164062 166.929688 337.1875 166.921875 336.746094 Z M 165.917969 331.089844 C 165.917969 331.042969 166.300781 330.152344 166.773438 329.117188 C 167.757812 326.957031 168.878906 325.300781 174.589844 317.578125 C 179.101562 311.472656 183.257812 305.667969 187.875 299.023438 C 191.617188 293.644531 192.25 292.871094 192.632812 293.242188 C 193.1875 293.78125 182.242188 309.488281 168.820312 327.429688 C 167.96875 328.5625 167.054688 329.871094 166.78125 330.335938 C 166.367188 331.050781 165.917969 331.441406 165.917969 331.089844 Z M 162.308594 326.351562 C 163.179688 322.886719 165.601562 319.097656 172.96875 309.664062 C 174.617188 307.550781 177.5625 303.765625 179.519531 301.25 C 187.59375 290.863281 188.535156 289.753906 188.980469 290.03125 C 189.421875 290.300781 189.066406 290.941406 187.121094 293.371094 C 185.996094 294.78125 183.632812 297.824219 181.875 300.136719 C 180.121094 302.449219 177.441406 305.902344 175.929688 307.808594 C 168.941406 316.605469 164.113281 323.273438 163.050781 325.597656 C 162.382812 327.058594 162.046875 327.402344 162.308594 326.351562 Z M 164.855469 307.085938 C 166.222656 304.816406 171.105469 298.457031 175.320312 293.457031 C 177.386719 291.007812 179.175781 288.753906 179.296875 288.441406 C 179.417969 288.132812 179.675781 287.816406 179.871094 287.742188 C 180.066406 287.667969 180.289062 287.4375 180.371094 287.238281 C 180.488281 286.925781 180.289062 286.894531 179.089844 287.023438 C 178.308594 287.109375 176.890625 287.425781 175.941406 287.722656 C 174.539062 288.160156 173.921875 288.539062 172.648438 289.726562 C 168.921875 293.214844 164.972656 300.917969 163.070312 308.433594 C 162.265625 311.597656 162.316406 312.144531 163.21875 310.179688 C 163.621094 309.304688 164.359375 307.914062 164.855469 307.085938 Z M 208.84375 319.371094 C 210.328125 315.835938 210.550781 314.078125 210.207031 308.550781 C 210.058594 306.160156 209.828125 303.621094 209.695312 302.914062 C 209.0625 299.539062 207.753906 296.507812 206.40625 295.273438 C 205.753906 294.675781 205.683594 294.515625 205.992188 294.320312 C 206.613281 293.925781 207.105469 294.042969 207.789062 294.757812 C 208.640625 295.644531 210.03125 298.699219 210.554688 300.828125 C 211.039062 302.796875 211.460938 307.441406 211.300781 309.113281 C 210.773438 314.679688 210.625 315.871094 210.328125 316.886719 C 209.867188 318.449219 209.210938 319.804688 208.910156 319.804688 C 208.769531 319.804688 208.742188 319.617188 208.84375 319.371094 Z M 95.851562 307.746094 C 94.464844 306.140625 92.6875 301.753906 91.921875 298.039062 C 89.722656 287.371094 90.039062 279.636719 92.75 277.65625 L 93.429688 277.15625 L 94.097656 277.65625 C 95.773438 278.90625 96.871094 282.144531 97.382812 287.363281 C 97.671875 290.28125 97.6875 300.820312 97.410156 303.972656 C 97.308594 305.128906 97.238281 306.097656 97.253906 306.125 C 97.304688 306.214844 107.015625 299.96875 111.613281 296.890625 C 119.601562 291.546875 122.898438 289.519531 141.089844 278.769531 C 143.417969 277.394531 145.488281 276.265625 145.683594 276.265625 C 145.878906 276.265625 148.265625 275.328125 150.996094 274.179688 C 153.726562 273.035156 157.503906 271.523438 159.390625 270.816406 C 163.566406 269.257812 169.640625 267.109375 169.875 267.109375 C 169.964844 267.109375 170.160156 267.367188 170.300781 267.679688 C 170.546875 268.21875 170.472656 268.273438 168.546875 268.933594 C 161.222656 271.453125 152.027344 275.050781 145.257812 278.042969 C 143.898438 278.644531 139.445312 281.121094 135.363281 283.550781 C 122.765625 291.042969 119.84375 292.871094 110.613281 299.03125 C 105.667969 302.332031 96.523438 308.179688 96.308594 308.179688 C 96.261719 308.179688 96.058594 307.984375 95.851562 307.746094 Z M 96.261719 299.859375 C 96.566406 293.289062 95.808594 283.828125 94.773438 281.320312 C 94.277344 280.125 93.21875 278.6875 92.953125 278.851562 C 92.847656 278.917969 92.546875 279.671875 92.292969 280.523438 C 91.566406 282.949219 91.671875 288.632812 92.535156 293.457031 C 93.480469 298.742188 94.035156 300.945312 94.953125 302.996094 C 95.671875 304.601562 95.777344 304.726562 95.925781 304.164062 C 96.019531 303.820312 96.167969 301.882812 96.261719 299.859375 Z M 82.378906 279.789062 C 82.679688 277.90625 84.515625 274.816406 86.707031 272.507812 C 89.347656 269.734375 91.570312 268.519531 94.035156 268.488281 C 95.25 268.464844 95.722656 268.578125 96.125 268.941406 C 96.410156 269.203125 96.648438 269.496094 96.648438 269.597656 C 96.648438 269.699219 95.5625 269.824219 94.234375 269.871094 C 92.316406 269.9375 91.582031 270.074219 90.636719 270.539062 C 88.003906 271.835938 85.007812 275.460938 83.667969 278.957031 C 83.238281 280.089844 82.859375 280.71875 82.613281 280.71875 C 82.3125 280.71875 82.261719 280.523438 82.378906 279.789062 Z M 192.265625 270.921875 C 191.992188 270.875 188.691406 270.664062 184.929688 270.445312 C 174.375 269.835938 172.101562 269.433594 172.101562 268.175781 C 172.101562 267.984375 171.917969 267.472656 171.691406 267.035156 C 171.148438 265.988281 170.996094 264.621094 171.015625 261.050781 C 171.015625 259.417969 171.0625 252.847656 171.101562 246.453125 C 171.140625 239.628906 171.046875 232.527344 170.871094 229.261719 C 170.707031 226.199219 170.527344 222.1875 170.472656 220.355469 C 170.417969 218.515625 170.261719 215.621094 170.125 213.921875 C 169.851562 210.441406 169.375 201.265625 168.617188 184.851562 C 168.050781 172.578125 167.972656 171.617188 167.558594 171.617188 C 167.125 171.617188 166.96875 165.230469 167.207031 156.835938 L 167.277344 154.300781 L 168.082031 154.300781 C 168.878906 154.300781 168.886719 154.300781 168.886719 155.523438 C 168.886719 159.886719 169.964844 176.347656 170.285156 176.875 C 170.347656 176.976562 170.390625 178.367188 170.378906 179.96875 C 170.378906 181.566406 170.472656 185.042969 170.605469 187.699219 C 170.742188 190.351562 170.972656 195.804688 171.117188 199.820312 C 171.261719 203.832031 171.539062 209.121094 171.726562 211.570312 C 172.589844 222.824219 172.816406 227.988281 173.082031 242.25 C 173.230469 250.332031 173.417969 254.742188 173.6875 256.722656 C 173.929688 258.5 174.054688 260.949219 174.015625 263.257812 L 173.957031 266.949219 L 174.699219 267.152344 C 175.109375 267.265625 179.253906 267.429688 183.910156 267.523438 C 191.699219 267.671875 192.417969 267.722656 192.796875 268.140625 C 193.671875 269.109375 193.984375 268.742188 194.59375 266.058594 C 194.90625 264.664062 195.214844 263.242188 195.273438 262.90625 C 195.335938 262.5625 195.761719 260.78125 196.222656 258.945312 C 196.683594 257.109375 197.6875 252.269531 198.449219 248.183594 C 199.867188 240.621094 204.929688 213.808594 205.152344 212.683594 C 205.21875 212.34375 204.457031 213.679688 203.453125 215.652344 C 201.503906 219.488281 198.601562 224.902344 197.089844 227.527344 C 194.011719 232.855469 183.714844 252.816406 180.625 259.441406 C 179.578125 261.6875 178.625 263.628906 178.507812 263.753906 C 177.96875 264.339844 178.152344 263.507812 179.257812 260.421875 C 182.113281 252.421875 191.78125 233.640625 202.621094 215.035156 C 204.039062 212.601562 204.605469 211.832031 204.953125 211.871094 C 205.355469 211.914062 205.503906 211.425781 206.191406 207.789062 C 208.402344 196.039062 211.554688 176.695312 212.910156 166.507812 C 213.332031 163.355469 213.871094 159.625 214.105469 158.21875 L 214.527344 155.660156 L 215.367188 155.582031 L 216.210938 155.5 L 216.046875 156.449219 C 215.960938 156.96875 215.382812 161.066406 214.765625 165.554688 C 212.65625 180.84375 209.839844 197.585938 206.628906 213.921875 C 203.132812 231.707031 202.085938 237.5 200.894531 245.585938 C 199.230469 256.914062 197.539062 264.726562 196.414062 266.316406 C 195.945312 266.972656 195.914062 267.035156 195.273438 268.304688 C 194.710938 269.429688 194.726562 269.464844 195.851562 269.800781 C 196.941406 270.128906 197.15625 270.679688 196.285156 270.914062 C 195.71875 271.066406 193.171875 271.070312 192.265625 270.914062 Z M 186.449219 264.328125 C 186.449219 263.570312 188.574219 258.691406 191.589844 252.515625 C 193.355469 248.90625 195.753906 243.980469 196.925781 241.566406 C 198.941406 237.414062 199.5625 236.5 199.5625 237.695312 C 199.5625 238.910156 193.574219 251.949219 189.914062 258.699219 C 188.917969 260.535156 187.839844 262.5625 187.515625 263.203125 C 186.902344 264.425781 186.449219 264.902344 186.449219 264.328125 Z M 175.070312 255.519531 C 175.070312 254.90625 191.265625 222.34375 199.941406 205.511719 C 202.433594 200.679688 205.273438 195 206.257812 192.894531 C 208.046875 189.050781 208.558594 188.199219 208.875 188.515625 C 209.472656 189.117188 207.410156 193.542969 195.65625 216.890625 C 182.675781 242.679688 175.835938 255.730469 175.296875 255.730469 C 175.171875 255.730469 175.070312 255.632812 175.070312 255.519531 Z M 175.566406 244.355469 C 175.566406 244.089844 176.183594 242.023438 177.34375 238.414062 C 177.757812 237.121094 178.988281 233.835938 180.078125 231.113281 C 184.332031 220.488281 188.835938 211.097656 196.335938 197.238281 C 201.445312 187.800781 204.140625 182.441406 206.328125 177.382812 C 208.621094 172.082031 209.441406 170.511719 209.753906 170.824219 C 210.359375 171.429688 205.304688 183.457031 201.3125 190.914062 C 200.109375 193.15625 197.589844 197.832031 195.714844 201.304688 C 188.738281 214.207031 184.203125 224.09375 176.734375 242.679688 C 176.050781 244.375 175.566406 245.074219 175.566406 244.355469 Z M 163.996094 231.980469 C 163.996094 231.503906 164.046875 231.3125 164.109375 231.546875 C 164.171875 231.785156 164.171875 232.175781 164.109375 232.414062 C 164.046875 232.652344 163.996094 232.457031 163.996094 231.980469 Z M 163.609375 228.890625 C 163.503906 227.800781 163.152344 225.128906 162.828125 222.949219 C 161.25 212.355469 160.425781 191.410156 161.585938 191.410156 C 162.003906 191.410156 162.199219 193.851562 162.207031 199.078125 C 162.207031 203.019531 162.570312 209.023438 163.191406 215.53125 C 163.507812 218.847656 164.007812 229.195312 163.894531 230.125 C 163.84375 230.539062 163.71875 229.992188 163.609375 228.890625 Z M 177.296875 224.308594 C 177.296875 224.074219 181.566406 214.296875 184.152344 208.601562 C 184.769531 207.242188 187.617188 201.453125 190.472656 195.738281 C 196.617188 183.460938 199.800781 176.796875 202.820312 169.894531 C 205.089844 164.703125 205.40625 164.109375 205.757812 164.328125 C 206.042969 164.503906 205.507812 166.203125 203.800781 170.519531 C 201.402344 176.597656 198.214844 183.273438 189.816406 199.820312 C 185.429688 208.457031 180.914062 217.5625 179.785156 220.042969 C 177.972656 224.019531 177.296875 225.179688 177.296875 224.308594 Z M 176.875 212.035156 C 180.304688 201.261719 187.585938 182.492188 193.945312 168.03125 C 196.550781 162.101562 197.09375 160.980469 197.351562 160.980469 C 198.074219 160.980469 197.863281 161.53125 185.402344 192.273438 C 182.480469 199.484375 179.484375 206.9375 178.75 208.832031 C 178.015625 210.726562 177.257812 212.324219 177.070312 212.390625 C 176.828125 212.46875 176.773438 212.367188 176.875 212.035156 Z M 175.316406 195.523438 C 175.316406 194.824219 176.496094 190.359375 177.203125 188.386719 C 177.558594 187.394531 179.433594 182.519531 181.371094 177.554688 C 183.304688 172.585938 185.640625 166.519531 186.554688 164.070312 C 188.550781 158.726562 188.699219 158.410156 189.242188 158.304688 C 189.558594 158.242188 189.667969 158.390625 189.667969 158.875 C 189.667969 159.875 185.613281 170.828125 181.195312 181.761719 C 179.023438 187.132812 176.933594 192.410156 176.546875 193.480469 C 175.824219 195.492188 175.316406 196.335938 175.316406 195.523438 Z M 175.070312 175.933594 C 175.070312 174.8125 181.375 156.664062 182.050781 155.847656 C 182.445312 155.367188 182.988281 155.480469 182.988281 156.042969 C 182.988281 157.019531 178.835938 168.410156 177.160156 172.035156 C 176.582031 173.28125 175.976562 174.699219 175.820312 175.183594 C 175.5 176.152344 175.070312 176.582031 175.070312 175.933594 Z M 215.628906 150.84375 C 215.285156 150.640625 215.429688 149.371094 216.914062 139.535156 C 217.835938 133.4375 218.675781 127.902344 218.785156 127.238281 L 218.984375 126.03125 L 219.667969 127.085938 L 220.355469 128.140625 L 218.734375 138.933594 C 217.84375 144.867188 217.050781 150.03125 216.976562 150.402344 C 216.835938 151.109375 216.351562 151.265625 215.628906 150.84375 Z M 166.808594 145.207031 C 166.636719 141.03125 165.824219 123.28125 165.527344 117.316406 C 165.441406 115.546875 165.300781 113.988281 165.21875 113.855469 C 165.136719 113.71875 165.101562 112.769531 165.136719 111.75 C 165.222656 109.398438 163.914062 80.347656 163.191406 68.578125 C 162.902344 63.8125 162.886719 62.515625 163.132812 62.527344 C 163.234375 62.527344 163.636719 62.796875 164.027344 63.117188 L 164.738281 63.695312 L 165.1875 68.980469 C 165.742188 75.492188 166.160156 85.628906 166.171875 92.699219 C 166.171875 95.621094 166.289062 98.851562 166.425781 99.875 C 166.5625 100.890625 166.777344 104.011719 166.902344 106.800781 C 167.027344 109.589844 167.300781 114.820312 167.507812 118.429688 C 167.964844 126.386719 168.351562 135.597656 168.558594 143.476562 L 168.714844 149.351562 L 166.976562 149.351562 Z M 203.023438 146.242188 C 203.023438 146.015625 203.570312 144.808594 204.242188 143.570312 C 204.914062 142.328125 205.792969 140.476562 206.203125 139.457031 C 206.609375 138.433594 207.714844 135.929688 208.65625 133.890625 C 209.597656 131.847656 210.914062 128.816406 211.582031 127.15625 C 212.761719 124.21875 213.28125 123.472656 213.582031 124.261719 C 213.902344 125.09375 210.089844 134.085938 207.246094 139.210938 C 206.453125 140.636719 205.292969 142.828125 204.667969 144.074219 C 203.53125 146.351562 203.023438 147.019531 203.023438 146.242188 Z M 185.8125 145.761719 C 186.011719 144.964844 191.871094 133.1875 193.964844 129.375 C 194.730469 127.980469 195.984375 125.699219 196.746094 124.304688 C 198.964844 120.257812 202.449219 113.226562 204.617188 108.429688 C 206.578125 104.085938 207.46875 102.761719 207.164062 104.640625 C 206.632812 107.917969 201.445312 118.597656 193.859375 132.035156 C 190.980469 137.136719 188.082031 142.390625 187.417969 143.703125 C 186.179688 146.175781 185.484375 147.0625 185.8125 145.761719 Z M 178.535156 143.171875 C 178.535156 142.84375 181.15625 137.171875 183.089844 133.3125 C 184 131.496094 187.117188 125.652344 190.019531 120.324219 C 192.921875 114.996094 196.71875 107.851562 198.457031 104.449219 C 201.707031 98.097656 202.394531 96.90625 202.796875 96.90625 C 203.199219 96.90625 203.050781 97.464844 201.984375 99.996094 C 199.828125 105.113281 194.566406 114.996094 184.066406 133.660156 C 182.449219 136.523438 180.6875 139.832031 180.140625 141.003906 C 179.277344 142.875 178.535156 143.871094 178.535156 143.171875 Z M 211.9375 142.734375 C 211.9375 142.632812 212.109375 142.332031 212.308594 142.066406 C 212.511719 141.804688 212.675781 141.40625 212.675781 141.1875 C 212.675781 140.683594 214.765625 136.351562 215.109375 136.140625 C 215.597656 135.839844 215.675781 136.507812 215.289062 137.671875 C 215.074219 138.316406 214.34375 139.667969 213.664062 140.671875 C 212.984375 141.671875 212.425781 142.589844 212.425781 142.707031 C 212.425781 142.824219 212.316406 142.917969 212.179688 142.917969 C 212.042969 142.917969 211.933594 142.835938 211.9375 142.734375 Z M 199.078125 139.953125 C 200.160156 137.101562 201.609375 133.925781 204.652344 127.707031 C 206.382812 124.167969 208.375 119.886719 209.078125 118.195312 C 210.519531 114.734375 211.105469 114.089844 210.875 116.230469 C 210.703125 117.800781 210.0625 119.421875 207.566406 124.613281 C 205.355469 129.21875 199.734375 139.828125 199.050781 140.691406 C 198.578125 141.289062 198.578125 141.265625 199.078125 139.953125 Z M 174.574219 135.390625 C 174.574219 134.914062 177.09375 128.605469 178.734375 124.984375 C 183.121094 115.28125 194.390625 92.945312 194.894531 92.945312 C 195.8125 92.945312 194.441406 95.960938 185.078125 114.59375 C 180.566406 123.574219 176.449219 131.957031 175.933594 133.21875 C 175.011719 135.460938 174.574219 136.164062 174.574219 135.390625 Z M 162.398438 131.894531 C 162.027344 131.695312 160.21875 131.03125 158.375 130.425781 C 154.484375 129.136719 146.945312 126.265625 142.195312 124.265625 C 139.019531 122.925781 138.855469 122.886719 138.277344 123.265625 C 136.832031 124.210938 132.210938 123.820312 127.785156 122.375 C 122.097656 120.515625 120.191406 118.457031 122.191406 116.328125 C 123.398438 115.039062 124.625 114.808594 128.222656 115.183594 C 131.820312 115.5625 133.027344 115.820312 134.621094 116.550781 C 136.820312 117.554688 139.445312 120.199219 139.445312 121.410156 C 139.445312 121.699219 139.800781 121.96875 140.496094 122.214844 C 141.074219 122.417969 144.277344 123.644531 147.609375 124.9375 C 150.945312 126.226562 155.84375 128.023438 158.496094 128.929688 C 163.488281 130.628906 164.53125 131.195312 163.949219 131.898438 C 163.558594 132.367188 163.265625 132.367188 162.398438 131.898438 Z M 137.40625 122.476562 C 138.324219 122.230469 138.105469 121.285156 136.808594 119.894531 C 135.375 118.363281 132.933594 117.128906 129.921875 116.414062 C 128.695312 116.125 127.5 115.792969 127.265625 115.671875 C 126.644531 115.363281 125.851562 115.410156 124.410156 115.835938 C 121.25 116.777344 121.738281 118.460938 125.714844 120.304688 C 129.128906 121.890625 135.3125 123.039062 137.40625 122.476562 Z M 171.855469 123.566406 C 171.855469 122.929688 176.085938 114.152344 180.574219 105.488281 C 183.046875 100.695312 186.167969 94.554688 187.503906 91.832031 C 188.839844 89.113281 190.027344 86.851562 190.148438 86.8125 C 191.5 86.339844 188.691406 92.824219 182.0625 105.453125 C 180.425781 108.574219 178.175781 112.726562 177.0625 114.683594 C 175.949219 116.636719 174.425781 119.449219 173.675781 120.925781 C 172.355469 123.535156 171.855469 124.257812 171.855469 123.566406 Z M 285.253906 122.71875 C 285.328125 122.285156 286.011719 120.453125 286.777344 118.636719 C 289.9375 111.132812 291.042969 106.671875 290.769531 102.496094 C 290.589844 99.707031 290.246094 98.464844 289.605469 98.261719 C 288.921875 98.046875 289 97.6875 289.777344 97.492188 C 291.726562 97 292.730469 102.15625 291.722656 107.433594 C 290.859375 111.929688 287.300781 121.011719 285.664062 122.882812 L 285.121094 123.5 Z M 169.703125 111.933594 C 170.59375 109.765625 174.226562 102.160156 175.703125 99.378906 C 178.488281 94.121094 184.71875 81.3125 184.71875 80.835938 C 184.71875 80.347656 185.1875 79.835938 185.632812 79.835938 C 185.8125 79.835938 185.957031 80.074219 185.957031 80.371094 C 185.957031 81.851562 179.53125 95.238281 174.816406 103.585938 C 173.160156 106.507812 171.429688 109.65625 170.964844 110.574219 C 170.496094 111.492188 169.992188 112.242188 169.84375 112.242188 C 169.695312 112.242188 169.632812 112.105469 169.703125 111.933594 Z M 168.144531 96.523438 C 168.144531 96.449219 168.359375 95.96875 168.621094 95.449219 C 168.886719 94.929688 169.789062 92.847656 170.625 90.820312 C 171.460938 88.792969 173.414062 84.527344 174.96875 81.34375 C 176.523438 78.160156 177.792969 75.414062 177.792969 75.246094 C 177.792969 74.851562 178.546875 74.554688 178.832031 74.839844 C 179.183594 75.1875 178.441406 77.011719 175.261719 83.632812 C 171.015625 92.464844 168.144531 97.667969 168.144531 96.523438 Z M 203.890625 85.316406 C 202.394531 84.398438 199.445312 82.492188 197.335938 81.089844 C 195.226562 79.6875 191.050781 77.085938 188.058594 75.3125 C 185.066406 73.539062 178.777344 69.789062 174.082031 66.976562 C 164.480469 61.21875 163.09375 60.421875 157.917969 57.667969 C 153.699219 55.421875 145.792969 50.195312 145.675781 49.574219 C 145.476562 48.550781 147.132812 49.328125 152.804688 52.910156 C 154.644531 54.074219 157.589844 55.777344 159.359375 56.699219 C 163.765625 58.996094 167.328125 61.03125 173.585938 64.820312 C 176.511719 66.59375 181.078125 69.3125 183.730469 70.867188 C 186.382812 72.425781 189.777344 74.429688 191.273438 75.324219 C 194.023438 76.964844 202.144531 82.3125 205.039062 84.386719 C 205.90625 85.007812 206.871094 85.691406 207.179688 85.910156 C 207.632812 86.226562 207.691406 86.378906 207.460938 86.660156 C 207.300781 86.851562 207.046875 87.007812 206.894531 87.003906 C 206.738281 87.003906 205.386719 86.242188 203.890625 85.316406 Z M 169.222656 81.691406 C 169.414062 81.28125 169.648438 80.558594 169.75 80.082031 C 169.945312 79.128906 172.738281 72.476562 173.144531 71.980469 C 173.53125 71.511719 174.082031 71.613281 174.082031 72.152344 C 174.082031 72.859375 171.613281 78.238281 170.484375 79.996094 C 168.992188 82.308594 168.839844 82.519531 169.222656 81.691406 Z M 210.273438 79.648438 C 210.398438 79.246094 212.710938 72.964844 213.1875 71.734375 C 213.433594 71.101562 214.40625 70.957031 214.40625 71.554688 C 214.40625 72.96875 211.160156 80.082031 210.515625 80.082031 C 210.273438 80.082031 210.191406 79.929688 210.273438 79.648438 Z M 226.632812 74.367188 C 226.898438 72.359375 231.472656 46.605469 231.582031 46.492188 C 231.636719 46.441406 231.867188 47.242188 232.097656 48.269531 C 232.480469 49.984375 232.480469 50.328125 232.140625 52.3125 C 229.210938 69.152344 228.472656 73.382812 228.359375 73.945312 C 228.277344 74.363281 227.902344 74.800781 227.34375 75.132812 L 226.460938 75.652344 Z M 199.304688 71.859375 C 199.800781 70.867188 200.894531 68.929688 201.738281 67.539062 C 202.578125 66.15625 203.511719 64.519531 203.808594 63.902344 C 204.773438 61.914062 205.65625 62.28125 204.785156 64.308594 C 203.78125 66.648438 199.160156 73.5625 198.550781 73.632812 C 198.46875 73.632812 198.808594 72.84375 199.304688 71.859375 Z M 205.652344 72.785156 C 206.460938 70.785156 208.976562 65.980469 209.214844 65.980469 C 210.125 65.980469 208.078125 70.582031 206.238281 72.660156 L 205.25 73.773438 Z M 162.054688 64.496094 C 162.054688 62.792969 162.09375 62.097656 162.140625 62.949219 C 162.191406 63.800781 162.191406 65.191406 162.140625 66.042969 C 162.09375 66.894531 162.054688 66.195312 162.054688 64.496094 Z M 194.863281 66.160156 C 194.863281 65.75 195.65625 64.308594 197.832031 60.785156 C 199.136719 58.675781 200.332031 56.644531 200.496094 56.269531 C 200.855469 55.4375 201.542969 55.363281 201.542969 56.15625 C 201.542969 57.269531 197.34375 63.941406 195.582031 65.628906 C 195.1875 66.011719 194.863281 66.25 194.863281 66.160156 Z M 187.6875 65.421875 C 187.6875 65.246094 188.804688 63.328125 190.171875 61.152344 C 191.542969 58.976562 193.4375 55.84375 194.382812 54.191406 C 196.054688 51.277344 196.71875 50.527344 196.992188 51.242188 C 197.226562 51.847656 192.15625 60.589844 189.253906 64.585938 C 188.464844 65.679688 187.6875 66.09375 187.6875 65.421875 Z M 215.480469 62.835938 C 214.804688 61.914062 212.015625 58.46875 209.28125 55.1875 C 202.59375 47.160156 198.316406 41.757812 193.78125 35.613281 C 189.566406 29.902344 185.257812 23.730469 184.625 22.503906 C 183.988281 21.269531 184.582031 21.550781 185.40625 22.871094 C 185.808594 23.519531 187.042969 25.144531 188.15625 26.484375 C 189.269531 27.824219 192.199219 31.558594 194.671875 34.773438 C 200.214844 41.996094 203.5625 46.167969 209.695312 53.488281 C 215.601562 60.539062 217.640625 63.234375 217.558594 63.875 C 217.433594 64.886719 216.714844 64.527344 215.480469 62.835938 Z M 181.269531 61.71875 C 181.246094 61.402344 185.1875 54.648438 187.144531 51.65625 C 188.171875 50.074219 189.589844 47.839844 190.296875 46.683594 C 191.609375 44.53125 192.386719 43.910156 192.386719 45.011719 C 192.386719 46.03125 188.160156 52.746094 184.242188 57.953125 C 183.210938 59.328125 182.125 60.773438 181.828125 61.171875 C 181.527344 61.570312 181.277344 61.816406 181.269531 61.71875 Z M 266.605469 59.886719 C 266.605469 59.75 266.78125 59.03125 266.996094 58.292969 C 267.785156 55.582031 271.128906 49.753906 283.667969 29.242188 C 286.164062 25.160156 288.8125 20.679688 289.546875 19.285156 C 290.960938 16.621094 291.519531 16.085938 291.230469 17.675781 C 290.929688 19.34375 289.71875 21.441406 276.507812 43.210938 C 274.160156 47.085938 271.398438 51.761719 270.371094 53.601562 C 267.945312 57.957031 266.605469 60.195312 266.605469 59.886719 Z M 176.613281 56.761719 C 177.484375 55.09375 179.644531 51.503906 181.414062 48.78125 C 183.183594 46.066406 185.273438 42.757812 186.058594 41.4375 C 187.671875 38.722656 188.09375 38.25 188.332031 38.867188 C 188.644531 39.6875 184.925781 46.03125 179.972656 53.117188 C 178.785156 54.816406 177.28125 57.007812 176.628906 57.984375 C 175.976562 58.964844 175.347656 59.773438 175.234375 59.78125 C 175.121094 59.78125 175.742188 58.429688 176.613281 56.761719 Z M 162.914062 57.203125 L 161.769531 56.371094 L 161.640625 50.96875 C 161.570312 48 161.324219 40.113281 161.089844 33.449219 C 160.570312 18.371094 160.515625 13.648438 160.859375 13.300781 C 161.011719 13.148438 162.671875 12.996094 164.816406 12.933594 C 166.847656 12.878906 170.6875 12.710938 173.339844 12.566406 C 180.671875 12.164062 215.023438 12.175781 220.324219 12.589844 L 224.628906 12.921875 L 224.863281 13.617188 C 224.992188 14 225.054688 14.347656 225.007812 14.386719 C 224.960938 14.429688 217.347656 14.355469 208.097656 14.230469 C 183.523438 13.890625 166.335938 14.164062 163.851562 14.933594 C 163.410156 15.070312 163.398438 15.480469 163.550781 25.128906 C 163.636719 30.660156 163.824219 40.292969 163.964844 46.527344 C 164.109375 52.765625 164.183594 57.90625 164.140625 57.953125 C 164.09375 57.996094 163.542969 57.664062 162.914062 57.207031 Z M 234.105469 55.40625 C 234.027344 54.757812 233.898438 53.503906 233.8125 52.621094 C 233.527344 49.683594 232.460938 44.4375 230.828125 37.917969 C 228.421875 28.320312 226.75 19.386719 226.042969 12.332031 C 225.726562 9.175781 225.722656 8.832031 226.019531 8.832031 C 226.476562 8.832031 226.769531 9.800781 227.152344 12.585938 C 228.167969 19.949219 230 28.953125 232.101562 36.910156 C 234.445312 45.789062 235.957031 55.269531 235.179688 56.207031 C 234.613281 56.894531 234.242188 56.621094 234.101562 55.40625 Z M 169.875 54.804688 C 169.875 54.4375 173.511719 47.84375 175.992188 43.714844 C 177.507812 41.195312 179.558594 37.648438 180.554688 35.824219 C 182.324219 32.589844 182.914062 31.925781 182.8125 33.277344 C 182.699219 34.761719 178.125 43.050781 174.25 48.789062 C 170.792969 53.90625 169.875 55.167969 169.875 54.804688 Z M 222.207031 53.796875 C 222.601562 52.492188 227.386719 43.46875 227.6875 43.46875 C 228.589844 43.46875 227.847656 45.457031 224.910156 50.875 C 223.460938 53.550781 222.914062 54.351562 222.535156 54.351562 C 222.140625 54.351562 222.074219 54.246094 222.207031 53.796875 Z M 251.644531 53.300781 C 251.699219 52.859375 251.796875 51.382812 251.863281 50.023438 C 252.070312 45.730469 253.5625 39.21875 258.058594 22.933594 C 259.492188 17.746094 260.3125 13.855469 260.667969 10.5625 C 260.957031 7.910156 261.136719 7.398438 261.671875 7.726562 C 262.148438 8.023438 261.785156 12.378906 260.949219 16.378906 C 260.550781 18.28125 259.273438 23.347656 258.105469 27.632812 C 255.417969 37.511719 253.613281 45.195312 252.21875 52.683594 C 251.941406 54.179688 251.476562 54.679688 251.644531 53.300781 Z M 219.105469 48.03125 C 219.105469 47.691406 225.066406 37.410156 226.175781 35.839844 C 226.796875 34.957031 227.1875 35.519531 226.8125 36.757812 C 226.519531 37.734375 223.910156 42.179688 221.238281 46.25 C 219.914062 48.265625 219.105469 48.945312 219.105469 48.03125 Z M 166.660156 47.265625 C 166.660156 47.007812 170.3125 40.371094 171.742188 38.023438 C 172.445312 36.867188 174.335938 33.859375 175.941406 31.34375 C 177.546875 28.828125 179.128906 26.296875 179.457031 25.71875 C 180.070312 24.648438 180.355469 24.457031 180.644531 24.925781 C 181.039062 25.566406 177.53125 31.363281 169.6875 43.003906 C 168.710938 44.449219 167.726562 46.039062 167.488281 46.53125 C 167.113281 47.320312 166.660156 47.71875 166.660156 47.265625 Z M 214.40625 44.828125 C 214.40625 44.441406 221.816406 32.667969 223.90625 29.738281 C 224.230469 29.28125 224.273438 29.273438 224.429688 29.675781 C 224.523438 29.914062 224.539062 30.359375 224.460938 30.667969 C 224.289062 31.34375 219.742188 38.320312 218.136719 40.375 C 217.496094 41.191406 216.503906 42.554688 215.929688 43.40625 C 215.039062 44.71875 214.40625 45.3125 214.40625 44.828125 Z M 233.59375 38.84375 L 233.121094 37.6875 L 234.4375 30.867188 C 235.164062 27.117188 236.132812 22.320312 236.589844 20.210938 C 237.050781 18.101562 237.488281 16.085938 237.570312 15.730469 C 237.707031 15.09375 237.699219 15.085938 235.503906 14.804688 C 234.289062 14.648438 232.175781 14.523438 230.804688 14.523438 C 228.164062 14.523438 228.011719 14.453125 228.011719 13.230469 C 228.011719 12.75 228.109375 12.734375 229.804688 12.878906 C 230.792969 12.960938 233.246094 13.105469 235.253906 13.195312 C 239.605469 13.390625 239.464844 13.246094 238.675781 16.792969 C 238.175781 19.03125 234.777344 37.214844 234.511719 39.078125 C 234.441406 39.585938 234.3125 40.003906 234.226562 40.003906 C 234.140625 40.003906 233.859375 39.480469 233.59375 38.84375 Z M 210.449219 38.273438 C 210.449219 38.121094 210.933594 37.304688 211.527344 36.460938 C 212.410156 35.210938 216.738281 28.832031 219.5625 24.605469 C 220.230469 23.605469 220.835938 23.386719 220.835938 24.148438 C 220.835938 24.738281 216.714844 30.921875 213.496094 35.160156 C 211.214844 38.167969 210.449219 38.953125 210.449219 38.273438 Z M 165.917969 36.738281 C 165.917969 36.316406 168.046875 32.574219 169.621094 30.238281 C 171.242188 27.824219 175.464844 21.125 175.933594 20.222656 C 176.363281 19.394531 177.050781 19.214844 177.050781 19.929688 C 177.050781 20.183594 176.699219 21.046875 176.273438 21.839844 C 173.8125 26.453125 165.917969 37.8125 165.917969 36.738281 Z M 205.914062 32.273438 C 207.089844 30.605469 209.242188 27.738281 210.695312 25.902344 C 212.144531 24.066406 214.089844 21.5625 215.015625 20.335938 C 216.71875 18.078125 217.375 17.546875 217.375 18.433594 C 217.375 19.355469 212.039062 26.320312 207.859375 30.851562 C 206.539062 32.277344 205.179688 33.867188 204.828125 34.375 C 204.484375 34.886719 204.101562 35.304688 203.984375 35.304688 C 203.863281 35.304688 204.734375 33.941406 205.914062 32.273438 Z M 201.675781 27.882812 C 202.648438 26.097656 211.441406 15.757812 211.988281 15.757812 C 212.390625 15.757812 212.152344 16.617188 211.515625 17.46875 C 209.582031 20.046875 200.988281 29.144531 201.675781 27.882812 Z M 165.925781 26.839844 C 165.902344 25.925781 171.585938 16.132812 171.929688 16.476562 C 172.058594 16.609375 172.097656 16.972656 172.015625 17.289062 C 171.757812 18.308594 167.71875 25.082031 166.441406 26.644531 C 166.035156 27.144531 165.933594 27.179688 165.925781 26.839844 Z M 199.066406 21.117188 C 199.066406 20.246094 203.386719 15.265625 204.140625 15.265625 C 205.117188 15.265625 204.398438 16.292969 200.820312 20.027344 C 199.425781 21.480469 199.066406 21.703125 199.066406 21.117188 Z M 145.972656 17.675781 C 145.285156 15.378906 145.339844 11.507812 146.09375 9.089844 C 147.613281 4.203125 150.765625 0.175781 153.0625 0.175781 C 153.648438 0.175781 154.039062 0.308594 154.128906 0.535156 C 154.296875 0.976562 154.179688 1.054688 153.003906 1.261719 C 151.097656 1.605469 148.355469 5.847656 147.382812 9.945312 C 146.386719 14.171875 146.195312 16.777344 146.757812 18.667969 C 146.851562 18.976562 146.816406 19.222656 146.683594 19.222656 C 146.546875 19.222656 146.230469 18.527344 145.972656 17.675781 Z M 152.066406 16.511719 C 150.765625 13.957031 152.039062 9.125 154.730469 6.433594 C 156.601562 4.566406 159.839844 3.058594 160.320312 3.835938 C 160.53125 4.179688 160.148438 4.480469 158.375 5.367188 C 155.769531 6.664062 154.050781 8.6875 153.4375 11.183594 C 153.074219 12.648438 152.605469 16.519531 152.734375 17 C 152.945312 17.808594 152.601562 17.558594 152.066406 16.511719 Z M 152.066406 16.511719 " fill-opacity="1" fill-rule="nonzero"/></g></svg>