<svg xmlns="http://www.w3.org/2000/svg" xmlns:xlink="http://www.w3.org/1999/xlink" width="500" zoomAndPan="magnify" viewBox="0 0 375 374.999991" height="500" preserveAspectRatio="xMidYMid meet" version="1.0"><defs><clipPath id="2c6f1d6fd3"><path d="M 30.394531 28.582031 L 139 28.582031 L 139 137 L 30.394531 137 Z M 30.394531 28.582031 " clip-rule="nonzero"/></clipPath><clipPath id="0e11416ef7"><path d="M 238 28.582031 L 346.144531 28.582031 L 346.144531 137 L 238 137 Z M 238 28.582031 " clip-rule="nonzero"/></clipPath><clipPath id="192e35c432"><path d="M 238 236 L 346.144531 236 L 346.144531 344.332031 L 238 344.332031 Z M 238 236 " clip-rule="nonzero"/></clipPath><clipPath id="87cb567f8d"><path d="M 30.394531 236 L 139 236 L 139 344.332031 L 30.394531 344.332031 Z M 30.394531 236 " clip-rule="nonzero"/></clipPath><clipPath id="970389bca9"><path d="M 0 220.542969 L 68 220.542969 L 68 326.191406 L 0 326.191406 Z M 0 220.542969 " clip-rule="nonzero"/></clipPath><clipPath id="e9be8c23a0"><path d="M 310.5 50.9375 L 375 50.9375 L 375 150.679688 L 310.5 150.679688 Z M 310.5 50.9375 " clip-rule="nonzero"/></clipPath><clipPath id="70af08313a"><path d="M 52.203125 0 L 153.453125 0 L 153.453125 65 L 52.203125 65 Z M 52.203125 0 " clip-rule="nonzero"/></clipPath><clipPath id="5c4bb48940"><path d="M 225.019531 307.496094 L 330.019531 307.496094 L 330.019531 374.996094 L 225.019531 374.996094 Z M 225.019531 307.496094 " clip-rule="nonzero"/></clipPath><clipPath id="642267ec8f"><path d="M 296.765625 209.320312 L 363.515625 209.320312 L 363.515625 313.398438 L 296.765625 313.398438 Z M 296.765625 209.320312 " clip-rule="nonzero"/></clipPath><clipPath id="e7163a5234"><path d="M 209.472656 7.1875 L 319.722656 7.1875 L 319.722656 78.4375 L 209.472656 78.4375 Z M 209.472656 7.1875 " clip-rule="nonzero"/></clipPath><clipPath id="9215654a64"><path d="M 48.503906 289.214844 L 170.753906 289.214844 L 170.753906 367.964844 L 48.503906 367.964844 Z M 48.503906 289.214844 " clip-rule="nonzero"/></clipPath><clipPath id="fedfda8df4"><path d="M 9.855469 53.121094 L 84.855469 53.121094 L 84.855469 169.371094 L 9.855469 169.371094 Z M 9.855469 53.121094 " clip-rule="nonzero"/></clipPath></defs><g clip-path="url(#2c6f1d6fd3)"><path fill="#ffffff" d="M 44.339844 136.820312 L 30.394531 136.820312 L 30.394531 28.582031 L 138.628906 28.582031 L 138.628906 42.527344 L 44.339844 42.527344 Z M 44.339844 136.820312 " fill-opacity="1" fill-rule="nonzero"/></g><g clip-path="url(#0e11416ef7)"><path fill="#ffffff" d="M 346.472656 136.820312 L 332.527344 136.820312 L 332.527344 42.527344 L 238.234375 42.527344 L 238.234375 28.582031 L 346.472656 28.582031 Z M 346.472656 136.820312 " fill-opacity="1" fill-rule="nonzero"/></g><g clip-path="url(#192e35c432)"><path fill="#ffffff" d="M 346.472656 344.660156 L 238.234375 344.660156 L 238.234375 330.714844 L 332.527344 330.714844 L 332.527344 236.425781 L 346.472656 236.425781 Z M 346.472656 344.660156 " fill-opacity="1" fill-rule="nonzero"/></g><g clip-path="url(#87cb567f8d)"><path fill="#ffffff" d="M 138.628906 344.660156 L 30.394531 344.660156 L 30.394531 236.425781 L 44.339844 236.425781 L 44.339844 330.714844 L 138.628906 330.714844 Z M 138.628906 344.660156 " fill-opacity="1" fill-rule="nonzero"/></g><g clip-path="url(#970389bca9)"><path fill="#ffffff" d="M 40.863281 324.417969 C 41.617188 324.617188 41.59375 325.707031 40.816406 325.859375 C 36.804688 326.644531 33.085938 326.03125 29.652344 324.039062 C 26.019531 321.921875 23.53125 318.378906 23.953125 314.070312 C 24.476562 308.789062 28.832031 305.472656 33.921875 304.328125 C 35.570312 303.960938 38.105469 303.960938 41.539062 304.328125 C 46.457031 304.863281 54.039062 306.105469 55.964844 300.753906 C 57.625 296.136719 53.859375 293.507812 49.746094 293.046875 C 42.726562 292.246094 38.402344 293.820312 28.570312 295.847656 C 18.882812 297.851562 5.371094 294.6875 1.371094 284.234375 C -3.164062 272.382812 4.246094 260.910156 16.65625 259.421875 C 26.460938 258.25 32.867188 262.476562 41.871094 266.6875 C 46.089844 268.660156 51.578125 267.882812 53.253906 263.007812 C 54.859375 258.3125 45.078125 256.464844 42.898438 255.589844 C 35.5625 252.664062 33.480469 247.589844 30.929688 240.992188 C 28.234375 234.035156 33.742188 225.625 39.105469 220.941406 C 39.582031 220.523438 40.265625 220.417969 40.851562 220.667969 L 43.4375 221.777344 C 43.855469 221.957031 44.152344 222.34375 44.207031 222.796875 C 44.972656 228.78125 46.089844 233.484375 44.023438 238.261719 C 43.476562 239.550781 42.972656 240.917969 42.511719 242.390625 C 42.320312 243 42.457031 243.667969 42.863281 244.164062 C 44.898438 246.679688 48.828125 247.136719 54.144531 248.75 C 61.582031 251.011719 65.339844 255.726562 65.429688 262.875 C 65.472656 266.324219 64.042969 269.496094 61.148438 272.398438 C 56.019531 277.546875 49.957031 279.472656 42.953125 278.183594 C 37.714844 277.222656 31.96875 273.714844 27.027344 271.6875 C 21.558594 269.445312 13.617188 269.371094 12.671875 276.699219 C 10.976562 289.828125 35.066406 283.464844 41.148438 282.761719 C 49.746094 281.773438 58.90625 281.996094 64.996094 288.875 C 66.699219 290.800781 67.671875 293.199219 67.917969 296.058594 C 68.386719 301.582031 66.214844 306.007812 61.402344 309.332031 C 52.839844 315.253906 43.484375 313.027344 35.328125 312.65625 C 29.667969 312.394531 29.480469 318.34375 33.445312 320.929688 C 36.066406 322.644531 38.535156 323.804688 40.863281 324.417969 Z M 40.863281 324.417969 " fill-opacity="1" fill-rule="nonzero"/></g><g clip-path="url(#e9be8c23a0)"><path fill="#ffffff" d="M 336.417969 52.609375 C 335.703125 52.421875 335.730469 51.390625 336.460938 51.246094 C 340.246094 50.507812 343.761719 51.085938 347.003906 52.964844 C 350.433594 54.964844 352.78125 58.308594 352.382812 62.375 C 351.886719 67.363281 347.777344 70.492188 342.96875 71.574219 C 341.414062 71.921875 339.023438 71.921875 335.78125 71.574219 C 331.136719 71.070312 323.980469 69.898438 322.160156 74.953125 C 320.59375 79.308594 324.148438 81.792969 328.03125 82.226562 C 334.65625 82.984375 338.742188 81.496094 348.023438 79.582031 C 357.171875 77.691406 369.925781 80.679688 373.703125 90.546875 C 377.984375 101.738281 370.988281 112.566406 359.273438 113.972656 C 350.015625 115.078125 343.964844 111.085938 335.464844 107.113281 C 331.484375 105.25 326.300781 105.980469 324.71875 110.585938 C 323.207031 115.019531 332.4375 116.761719 334.496094 117.585938 C 341.421875 120.351562 343.386719 125.144531 345.796875 131.371094 C 348.339844 137.941406 343.140625 145.878906 338.078125 150.300781 C 337.628906 150.695312 336.980469 150.796875 336.425781 150.558594 L 333.984375 149.511719 C 333.59375 149.339844 333.3125 148.976562 333.261719 148.550781 C 332.539062 142.898438 331.484375 138.457031 333.433594 133.949219 C 333.953125 132.734375 334.429688 131.4375 334.863281 130.050781 C 335.039062 129.472656 334.914062 128.84375 334.53125 128.375 C 332.605469 126.003906 328.898438 125.570312 323.878906 124.046875 C 316.859375 121.910156 313.308594 117.460938 313.226562 110.710938 C 313.183594 107.453125 314.535156 104.460938 317.265625 101.71875 C 322.109375 96.859375 327.835938 95.039062 334.445312 96.257812 C 339.386719 97.167969 344.816406 100.476562 349.480469 102.390625 C 354.644531 104.511719 362.140625 104.578125 363.035156 97.660156 C 364.632812 85.265625 341.890625 91.269531 336.148438 91.933594 C 328.03125 92.871094 319.386719 92.65625 313.632812 86.164062 C 312.027344 84.34375 311.105469 82.082031 310.875 79.382812 C 310.433594 74.167969 312.484375 69.992188 317.027344 66.851562 C 325.113281 61.261719 333.941406 63.363281 341.644531 63.710938 C 346.988281 63.957031 347.164062 58.34375 343.421875 55.902344 C 340.945312 54.285156 338.613281 53.1875 336.417969 52.609375 Z M 336.417969 52.609375 " fill-opacity="1" fill-rule="nonzero"/></g><g clip-path="url(#70af08313a)"><path fill="#ffffff" d="M 53.863281 38.980469 C 53.675781 39.707031 52.628906 39.683594 52.480469 38.9375 C 51.730469 35.09375 52.316406 31.523438 54.226562 28.234375 C 56.257812 24.75 59.652344 22.367188 63.785156 22.773438 C 68.847656 23.273438 72.027344 27.445312 73.125 32.328125 C 73.480469 33.910156 73.480469 36.339844 73.125 39.628906 C 72.613281 44.347656 71.421875 51.613281 76.554688 53.464844 C 80.976562 55.054688 83.5 51.441406 83.941406 47.5 C 84.710938 40.769531 83.199219 36.621094 81.253906 27.195312 C 79.335938 17.90625 82.371094 4.957031 92.390625 1.121094 C 103.753906 -3.226562 114.753906 3.875 116.179688 15.773438 C 117.300781 25.175781 113.25 31.316406 109.214844 39.949219 C 107.324219 43.992188 108.066406 49.253906 112.742188 50.863281 C 117.242188 52.402344 119.011719 43.027344 119.851562 40.933594 C 122.660156 33.902344 127.523438 31.90625 133.847656 29.460938 C 140.519531 26.875 148.582031 32.15625 153.074219 37.296875 C 153.472656 37.753906 153.574219 38.410156 153.332031 38.972656 L 152.269531 41.453125 C 152.097656 41.851562 151.726562 42.136719 151.292969 42.1875 C 145.558594 42.921875 141.046875 43.992188 136.46875 42.015625 C 135.230469 41.488281 133.917969 41.003906 132.511719 40.5625 C 131.921875 40.382812 131.28125 40.511719 130.808594 40.898438 C 128.398438 42.851562 127.957031 46.621094 126.410156 51.71875 C 124.242188 58.847656 119.722656 62.449219 112.871094 62.535156 C 109.5625 62.578125 106.519531 61.203125 103.738281 58.429688 C 98.804688 53.515625 96.953125 47.699219 98.191406 40.988281 C 99.113281 35.964844 102.476562 30.453125 104.417969 25.71875 C 106.570312 20.472656 106.640625 12.863281 99.617188 11.953125 C 87.027344 10.332031 93.125 33.425781 93.800781 39.257812 C 94.75 47.5 94.535156 56.28125 87.941406 62.121094 C 86.09375 63.753906 83.796875 64.6875 81.054688 64.921875 C 75.757812 65.371094 71.515625 63.289062 68.328125 58.671875 C 62.652344 50.464844 64.785156 41.496094 65.140625 33.675781 C 65.390625 28.25 59.6875 28.070312 57.207031 31.871094 C 55.566406 34.386719 54.453125 36.753906 53.863281 38.980469 Z M 53.863281 38.980469 " fill-opacity="1" fill-rule="nonzero"/></g><g clip-path="url(#5c4bb48940)"><path fill="#ffffff" d="M 328.492188 334.292969 C 328.691406 333.539062 329.777344 333.566406 329.929688 334.339844 C 330.710938 338.335938 330.101562 342.042969 328.117188 345.460938 C 326.007812 349.078125 322.476562 351.558594 318.1875 351.136719 C 312.925781 350.613281 309.621094 346.277344 308.484375 341.207031 C 308.113281 339.5625 308.113281 337.042969 308.484375 333.621094 C 309.011719 328.71875 310.25 321.167969 304.917969 319.25 C 300.324219 317.597656 297.699219 321.347656 297.242188 325.441406 C 296.445312 332.4375 298.015625 336.746094 300.035156 346.539062 C 302.027344 356.191406 298.878906 369.648438 288.464844 373.632812 C 276.660156 378.148438 265.230469 370.769531 263.75 358.40625 C 262.582031 348.640625 266.792969 342.257812 270.984375 333.289062 C 272.949219 329.085938 272.179688 323.621094 267.320312 321.949219 C 262.644531 320.351562 260.804688 330.09375 259.933594 332.265625 C 257.015625 339.574219 251.960938 341.648438 245.390625 344.1875 C 238.460938 346.871094 230.085938 341.386719 225.417969 336.046875 C 225.003906 335.570312 224.894531 334.886719 225.148438 334.304688 L 226.25 331.726562 C 226.429688 331.3125 226.816406 331.019531 227.265625 330.964844 C 233.226562 330.199219 237.914062 329.085938 242.671875 331.144531 C 243.953125 331.691406 245.320312 332.195312 246.78125 332.652344 C 247.394531 332.839844 248.058594 332.707031 248.550781 332.300781 C 251.054688 330.273438 251.511719 326.359375 253.121094 321.0625 C 255.375 313.65625 260.070312 309.914062 267.1875 309.824219 C 270.625 309.777344 273.785156 311.203125 276.675781 314.085938 C 281.800781 319.195312 283.722656 325.238281 282.441406 332.210938 C 281.480469 337.425781 277.988281 343.15625 275.96875 348.074219 C 273.730469 353.523438 273.660156 361.433594 280.957031 362.375 C 294.039062 364.0625 287.699219 340.066406 287 334.007812 C 286.011719 325.441406 286.238281 316.320312 293.085938 310.253906 C 295.007812 308.558594 297.394531 307.585938 300.242188 307.34375 C 305.746094 306.878906 310.152344 309.042969 313.464844 313.835938 C 319.363281 322.363281 317.144531 331.683594 316.777344 339.804688 C 316.515625 345.445312 322.441406 345.632812 325.019531 341.683594 C 326.726562 339.070312 327.882812 336.609375 328.492188 334.292969 Z M 328.492188 334.292969 " fill-opacity="1" fill-rule="nonzero"/></g><g clip-path="url(#642267ec8f)"><path fill="#ffffff" d="M 337.023438 311.652344 C 337.769531 311.847656 337.742188 312.921875 336.976562 313.074219 C 333.027344 313.847656 329.359375 313.242188 325.976562 311.28125 C 322.398438 309.195312 319.949219 305.707031 320.367188 301.460938 C 320.882812 296.257812 325.171875 292.992188 330.1875 291.863281 C 331.8125 291.5 334.304688 291.5 337.6875 291.863281 C 342.535156 292.386719 350.003906 293.613281 351.902344 288.339844 C 353.535156 283.792969 349.824219 281.199219 345.777344 280.75 C 338.859375 279.957031 334.597656 281.511719 324.914062 283.507812 C 315.367188 285.480469 302.058594 282.363281 298.117188 272.066406 C 293.652344 260.390625 300.949219 249.089844 313.175781 247.625 C 322.835938 246.46875 329.148438 250.632812 338.015625 254.777344 C 342.171875 256.722656 347.578125 255.960938 349.230469 251.15625 C 350.808594 246.53125 341.175781 244.710938 339.027344 243.851562 C 331.800781 240.964844 329.75 235.964844 327.238281 229.46875 C 324.582031 222.613281 330.007812 214.328125 335.292969 209.714844 C 335.761719 209.304688 336.4375 209.199219 337.011719 209.445312 L 339.5625 210.539062 C 339.96875 210.714844 340.261719 211.097656 340.316406 211.542969 C 341.070312 217.4375 342.171875 222.070312 340.140625 226.777344 C 339.597656 228.046875 339.101562 229.394531 338.648438 230.84375 C 338.460938 231.445312 338.59375 232.105469 338.992188 232.59375 C 341 235.070312 344.871094 235.523438 350.109375 237.113281 C 357.433594 239.339844 361.136719 243.984375 361.226562 251.023438 C 361.269531 254.425781 359.859375 257.550781 357.007812 260.40625 C 351.957031 265.476562 345.980469 267.378906 339.082031 266.109375 C 333.925781 265.15625 328.257812 261.703125 323.394531 259.707031 C 318.003906 257.496094 310.183594 257.425781 309.25 264.644531 C 307.582031 277.578125 331.3125 271.3125 337.304688 270.617188 C 345.777344 269.640625 354.796875 269.863281 360.796875 276.636719 C 362.476562 278.539062 363.433594 280.898438 363.675781 283.714844 C 364.136719 289.15625 361.996094 293.515625 357.257812 296.792969 C 348.820312 302.625 339.605469 300.429688 331.570312 300.066406 C 325.996094 299.808594 325.808594 305.667969 329.714844 308.21875 C 332.300781 309.90625 334.730469 311.050781 337.023438 311.652344 Z M 337.023438 311.652344 " fill-opacity="1" fill-rule="nonzero"/></g><g clip-path="url(#e7163a5234)"><path fill="#ffffff" d="M 318.0625 35.726562 C 318.269531 34.933594 319.410156 34.960938 319.570312 35.773438 C 320.390625 39.964844 319.75 43.855469 317.667969 47.445312 C 315.453125 51.242188 311.75 53.84375 307.246094 53.398438 C 301.726562 52.851562 298.257812 48.300781 297.0625 42.980469 C 296.675781 41.253906 296.675781 38.609375 297.0625 35.019531 C 297.617188 29.875 298.917969 21.953125 293.324219 19.9375 C 288.5 18.203125 285.75 22.140625 285.269531 26.4375 C 284.429688 33.773438 286.078125 38.296875 288.199219 48.574219 C 290.289062 58.703125 286.984375 72.824219 276.054688 77.007812 C 263.664062 81.746094 251.671875 74.003906 250.117188 61.03125 C 248.894531 50.78125 253.3125 44.082031 257.710938 34.671875 C 259.773438 30.261719 258.964844 24.523438 253.867188 22.773438 C 248.960938 21.09375 247.027344 31.316406 246.113281 33.597656 C 243.050781 41.265625 237.746094 43.441406 230.851562 46.109375 C 223.578125 48.925781 214.789062 43.167969 209.890625 37.5625 C 209.457031 37.0625 209.34375 36.347656 209.605469 35.734375 L 210.765625 33.03125 C 210.953125 32.597656 211.359375 32.285156 211.832031 32.230469 C 218.085938 31.429688 223.003906 30.261719 227.996094 32.417969 C 229.34375 32.992188 230.777344 33.519531 232.3125 34 C 232.953125 34.199219 233.648438 34.058594 234.167969 33.632812 C 236.796875 31.503906 237.277344 27.398438 238.964844 21.839844 C 241.328125 14.066406 246.253906 10.136719 253.726562 10.042969 C 257.335938 9.996094 260.652344 11.496094 263.683594 14.519531 C 269.0625 19.878906 271.078125 26.21875 269.734375 33.539062 C 268.722656 39.011719 265.058594 45.023438 262.941406 50.1875 C 260.59375 55.90625 260.519531 64.207031 268.179688 65.195312 C 281.90625 66.964844 275.253906 41.785156 274.519531 35.425781 C 273.480469 26.4375 273.71875 16.863281 280.90625 10.496094 C 282.921875 8.714844 285.429688 7.699219 288.414062 7.445312 C 294.191406 6.953125 298.816406 9.222656 302.292969 14.253906 C 308.480469 23.203125 306.15625 32.984375 305.769531 41.511719 C 305.496094 47.425781 311.710938 47.625 314.417969 43.480469 C 316.207031 40.738281 317.421875 38.15625 318.0625 35.726562 Z M 318.0625 35.726562 " fill-opacity="1" fill-rule="nonzero"/></g><g clip-path="url(#9215654a64)"><path fill="#ffffff" d="M 50.296875 336.601562 C 50.066406 337.480469 48.804688 337.449219 48.625 336.550781 C 47.714844 331.898438 48.425781 327.582031 50.738281 323.601562 C 53.191406 319.390625 57.300781 316.503906 62.296875 316.996094 C 68.417969 317.601562 72.265625 322.648438 73.59375 328.554688 C 74.019531 330.46875 74.019531 333.402344 73.59375 337.386719 C 72.976562 343.089844 71.535156 351.878906 77.742188 354.117188 C 83.09375 356.039062 86.144531 351.671875 86.675781 346.90625 C 87.605469 338.765625 85.777344 333.75 83.425781 322.347656 C 81.105469 311.113281 84.773438 295.445312 96.898438 290.808594 C 110.640625 285.550781 123.945312 294.140625 125.667969 308.53125 C 127.027344 319.902344 122.125 327.332031 117.246094 337.773438 C 114.957031 342.664062 115.855469 349.027344 121.507812 350.972656 C 126.953125 352.832031 129.097656 341.492188 130.109375 338.964844 C 133.507812 330.457031 139.390625 328.042969 147.039062 325.085938 C 155.109375 321.960938 164.859375 328.347656 170.292969 334.5625 C 170.773438 335.117188 170.898438 335.910156 170.605469 336.589844 L 169.320312 339.589844 C 169.113281 340.070312 168.660156 340.417969 168.140625 340.480469 C 161.199219 341.367188 155.746094 342.664062 150.207031 340.269531 C 148.710938 339.632812 147.125 339.046875 145.417969 338.515625 C 144.710938 338.292969 143.9375 338.453125 143.359375 338.921875 C 140.445312 341.285156 139.914062 345.839844 138.042969 352.007812 C 135.417969 360.628906 129.953125 364.984375 121.664062 365.089844 C 117.664062 365.140625 113.984375 363.480469 110.617188 360.125 C 104.652344 354.179688 102.414062 347.148438 103.910156 339.027344 C 105.027344 332.953125 109.09375 326.285156 111.445312 320.558594 C 114.046875 314.214844 114.128906 305.007812 105.632812 303.914062 C 90.40625 301.949219 97.785156 329.882812 98.601562 336.9375 C 99.75 346.90625 99.488281 357.523438 91.515625 364.589844 C 89.277344 366.5625 86.5 367.691406 83.1875 367.976562 C 76.78125 368.519531 71.648438 366 67.792969 360.417969 C 60.925781 350.492188 63.507812 339.644531 63.9375 330.183594 C 64.238281 323.621094 57.339844 323.402344 54.34375 328 C 52.355469 331.042969 51.007812 333.90625 50.296875 336.601562 Z M 50.296875 336.601562 " fill-opacity="1" fill-rule="nonzero"/></g><g clip-path="url(#fedfda8df4)"><path fill="#ffffff" d="M 39.832031 54.90625 C 39 54.6875 39.027344 53.484375 39.882812 53.316406 C 44.300781 52.453125 48.402344 53.128906 52.1875 55.324219 C 56.1875 57.65625 58.929688 61.558594 58.464844 66.308594 C 57.886719 72.125 53.089844 75.78125 47.480469 77.042969 C 45.660156 77.449219 42.871094 77.449219 39.085938 77.042969 C 33.664062 76.457031 25.3125 75.085938 23.1875 80.984375 C 21.359375 86.070312 25.511719 88.96875 30.039062 89.476562 C 37.777344 90.359375 42.542969 88.621094 53.378906 86.386719 C 64.054688 84.183594 78.941406 87.667969 83.351562 99.1875 C 88.34375 112.246094 80.183594 124.890625 66.507812 126.527344 C 55.703125 127.820312 48.640625 123.160156 38.71875 118.523438 C 34.074219 116.347656 28.023438 117.203125 26.175781 122.574219 C 24.410156 127.75 35.183594 129.785156 37.589844 130.75 C 45.671875 133.976562 47.964844 139.566406 50.777344 146.835938 C 53.746094 154.503906 47.679688 163.769531 41.769531 168.933594 C 41.242188 169.390625 40.488281 169.507812 39.84375 169.230469 L 36.992188 168.007812 C 36.535156 167.808594 36.207031 167.382812 36.148438 166.886719 C 35.304688 160.292969 34.074219 155.109375 36.347656 149.84375 C 36.953125 148.425781 37.507812 146.914062 38.015625 145.296875 C 38.222656 144.621094 38.074219 143.886719 37.628906 143.339844 C 35.382812 140.570312 31.054688 140.0625 25.195312 138.285156 C 17 135.792969 12.859375 130.597656 12.761719 122.722656 C 12.710938 118.921875 14.289062 115.425781 17.476562 112.226562 C 23.128906 106.558594 29.8125 104.429688 37.527344 105.851562 C 43.296875 106.914062 49.632812 110.777344 55.078125 113.011719 C 61.105469 115.484375 69.855469 115.5625 70.894531 107.488281 C 72.761719 93.019531 46.21875 100.03125 39.515625 100.808594 C 30.039062 101.898438 19.949219 101.652344 13.238281 94.074219 C 11.359375 91.949219 10.289062 89.308594 10.019531 86.160156 C 9.503906 80.070312 11.898438 75.195312 17.199219 71.53125 C 26.632812 65.007812 36.941406 67.457031 45.929688 67.867188 C 52.167969 68.152344 52.375 61.601562 48.003906 58.75 C 45.117188 56.863281 42.394531 55.582031 39.832031 54.90625 Z M 39.832031 54.90625 " fill-opacity="1" fill-rule="nonzero"/></g></svg>