<svg xmlns="http://www.w3.org/2000/svg" xmlns:xlink="http://www.w3.org/1999/xlink" width="500" zoomAndPan="magnify" viewBox="0 0 375 374.999991" height="500" preserveAspectRatio="xMidYMid meet" version="1.0"><defs><clipPath id="769e4e1a95"><path d="M 375 37.5 L 375 337.5 C 375 358.210938 358.210938 375 337.5 375 L 37.5 375 C 16.789062 375 0 358.210938 0 337.5 L 0 37.5 C 0 16.789062 16.789062 0 37.5 0 L 337.5 0 C 358.210938 0 375 16.789062 375 37.5 Z M 375 37.5 " clip-rule="nonzero"/></clipPath><clipPath id="1d6d536192"><path d="M 0 0 L 375 0 L 375 375 L 0 375 Z M 0 0 " clip-rule="nonzero"/></clipPath><clipPath id="e898d84208"><path d="M 375 37.5 L 375 337.5 C 375 358.210938 358.210938 375 337.5 375 L 37.5 375 C 16.789062 375 0 358.210938 0 337.5 L 0 37.5 C 0 16.789062 16.789062 0 37.5 0 L 337.5 0 C 358.210938 0 375 16.789062 375 37.5 Z M 375 37.5 " clip-rule="nonzero"/></clipPath><clipPath id="c4f4d2b5a4"><rect x="0" width="375" y="0" height="375"/></clipPath><clipPath id="f109df4f8b"><path d="M 85 67.617188 L 337.746094 67.617188 L 337.746094 375 L 85 375 Z M 85 67.617188 " clip-rule="nonzero"/></clipPath></defs><g clip-path="url(#769e4e1a95)"><g transform="matrix(1, 0, 0, 1, 0, 0)"><g clip-path="url(#c4f4d2b5a4)"><g clip-path="url(#1d6d536192)"><g clip-path="url(#e898d84208)"><rect x="-82.5" width="540" fill="#ffffff" height="539.999987" y="-82.499998" fill-opacity="1"/></g></g></g></g></g><g clip-path="url(#f109df4f8b)"><path fill="#000000" d="M 236.839844 453.257812 C 239.652344 453.992188 239.550781 458.042969 236.671875 458.609375 C 221.769531 461.523438 207.9375 459.246094 195.179688 451.851562 C 181.683594 443.988281 172.4375 430.839844 174.011719 414.847656 C 175.957031 395.242188 192.128906 382.929688 211.050781 378.679688 C 217.179688 377.308594 226.589844 377.308594 239.351562 378.679688 C 257.636719 380.652344 285.800781 385.269531 292.96875 365.398438 C 299.128906 348.265625 285.132812 338.496094 269.859375 336.789062 C 243.773438 333.8125 227.695312 339.667969 191.160156 347.195312 C 155.15625 354.625 104.957031 342.878906 90.085938 304.066406 C 73.242188 260.070312 100.769531 217.480469 146.886719 211.957031 C 183.324219 207.609375 207.132812 223.300781 240.589844 238.925781 C 256.261719 246.253906 276.660156 243.375 282.886719 225.273438 C 288.847656 207.84375 252.511719 200.984375 244.40625 197.738281 C 217.148438 186.863281 209.410156 168.027344 199.933594 143.535156 C 189.921875 117.707031 210.382812 86.492188 230.308594 69.09375 C 232.082031 67.554688 234.628906 67.152344 236.804688 68.089844 L 246.417969 72.203125 C 247.957031 72.871094 249.0625 74.3125 249.265625 75.984375 C 252.109375 98.199219 256.261719 115.664062 248.59375 133.398438 C 246.550781 138.183594 244.675781 143.269531 242.96875 148.722656 C 242.265625 150.996094 242.765625 153.472656 244.273438 155.3125 C 251.84375 164.648438 266.445312 166.355469 286.203125 172.34375 C 313.832031 180.742188 327.796875 198.242188 328.132812 224.773438 C 328.300781 237.585938 322.976562 249.363281 312.222656 260.136719 C 293.167969 279.242188 270.628906 286.402344 244.609375 281.617188 C 225.152344 278.039062 203.785156 265.023438 185.433594 257.496094 C 165.105469 249.164062 135.601562 248.894531 132.082031 276.097656 C 125.789062 324.84375 215.304688 301.222656 237.910156 298.613281 C 269.859375 294.933594 303.886719 295.769531 326.523438 321.300781 C 332.855469 328.460938 336.472656 337.359375 337.375 347.964844 C 339.117188 368.476562 331.046875 384.902344 313.164062 397.25 C 281.347656 419.230469 246.585938 410.964844 216.277344 409.59375 C 195.246094 408.625 194.542969 430.707031 209.277344 440.308594 C 219.023438 446.667969 228.199219 450.980469 236.839844 453.257812 Z M 236.839844 453.257812 " fill-opacity="1" fill-rule="nonzero"/></g></svg>