<svg xmlns="http://www.w3.org/2000/svg" xmlns:xlink="http://www.w3.org/1999/xlink" width="500" zoomAndPan="magnify" viewBox="0 0 375 374.999991" height="500" preserveAspectRatio="xMidYMid meet" version="1.0"><defs><clipPath id="fa180ad31e"><path d="M 375 37.5 L 375 337.5 C 375 358.210938 358.210938 375 337.5 375 L 37.5 375 C 16.789062 375 0 358.210938 0 337.5 L 0 37.5 C 0 16.789062 16.789062 0 37.5 0 L 337.5 0 C 358.210938 0 375 16.789062 375 37.5 Z M 375 37.5 " clip-rule="nonzero"/></clipPath><clipPath id="4f99e1056d"><path d="M 0 0 L 375 0 L 375 375 L 0 375 Z M 0 0 " clip-rule="nonzero"/></clipPath><clipPath id="13501ecdcc"><path d="M 375 37.5 L 375 337.5 C 375 358.210938 358.210938 375 337.5 375 L 37.5 375 C 16.789062 375 0 358.210938 0 337.5 L 0 37.5 C 0 16.789062 16.789062 0 37.5 0 L 337.5 0 C 358.210938 0 375 16.789062 375 37.5 Z M 375 37.5 " clip-rule="nonzero"/></clipPath><clipPath id="50559b8d4f"><rect x="0" width="375" y="0" height="375"/></clipPath><clipPath id="9bc15e59a8"><path d="M 85 67.617188 L 337.746094 67.617188 L 337.746094 375 L 85 375 Z M 85 67.617188 " clip-rule="nonzero"/></clipPath></defs><g clip-path="url(#fa180ad31e)"><g transform="matrix(1, 0, 0, 1, 0, 0)"><g clip-path="url(#50559b8d4f)"><g clip-path="url(#4f99e1056d)"><g clip-path="url(#13501ecdcc)"><rect x="-82.5" width="540" fill="#000000" height="539.999987" y="-82.499998" fill-opacity="1"/></g></g></g></g></g><g clip-path="url(#9bc15e59a8)"><path fill="#ffffff" d="M 236.691406 453.246094 C 239.5 453.980469 239.402344 458.03125 236.523438 458.597656 C 221.636719 461.511719 207.816406 459.234375 195.070312 451.839844 C 181.585938 443.976562 172.351562 430.828125 173.925781 414.835938 C 175.867188 395.230469 192.027344 382.917969 210.929688 378.671875 C 217.050781 377.296875 226.453125 377.296875 239.199219 378.671875 C 257.46875 380.644531 285.605469 385.261719 292.765625 365.386719 C 298.921875 348.257812 284.9375 338.488281 269.679688 336.78125 C 243.617188 333.804688 227.558594 339.660156 191.054688 347.1875 C 155.089844 354.613281 104.9375 342.871094 90.082031 304.0625 C 73.253906 260.066406 100.753906 217.472656 146.824219 211.953125 C 183.226562 207.605469 207.015625 223.296875 240.4375 238.921875 C 256.097656 246.246094 276.472656 243.371094 282.695312 225.269531 C 288.648438 207.839844 252.347656 200.980469 244.253906 197.734375 C 217.019531 186.859375 209.289062 168.023438 199.820312 143.535156 C 189.816406 117.707031 210.261719 86.488281 230.167969 69.09375 C 231.941406 67.554688 234.484375 67.152344 236.65625 68.089844 L 246.261719 72.203125 C 247.800781 72.871094 248.902344 74.3125 249.105469 75.984375 C 251.949219 98.199219 256.097656 115.664062 248.433594 133.398438 C 246.394531 138.179688 244.519531 143.265625 242.8125 148.71875 C 242.109375 150.996094 242.613281 153.472656 244.117188 155.3125 C 251.679688 164.644531 266.265625 166.351562 286.007812 172.339844 C 313.609375 180.738281 327.5625 198.238281 327.894531 224.769531 C 328.0625 237.582031 322.742188 249.359375 312.003906 260.132812 C 292.964844 279.234375 270.449219 286.394531 244.453125 281.613281 C 225.015625 278.03125 203.667969 265.015625 185.335938 257.488281 C 165.027344 249.15625 135.550781 248.890625 132.039062 276.089844 C 125.746094 324.835938 215.179688 301.21875 237.761719 298.609375 C 269.679688 294.925781 303.671875 295.761719 326.289062 321.292969 C 332.613281 328.453125 336.226562 337.351562 337.128906 347.957031 C 338.867188 368.464844 330.804688 384.894531 312.941406 397.238281 C 281.15625 419.21875 246.425781 410.957031 216.148438 409.585938 C 195.136719 408.613281 194.433594 430.695312 209.15625 440.296875 C 218.890625 446.65625 228.058594 450.972656 236.691406 453.246094 Z M 236.691406 453.246094 " fill-opacity="1" fill-rule="nonzero"/></g></svg>