<svg xmlns="http://www.w3.org/2000/svg" xmlns:xlink="http://www.w3.org/1999/xlink" width="500" zoomAndPan="magnify" viewBox="0 0 375 150.749998" height="201" preserveAspectRatio="xMidYMid meet" version="1.0"><defs><g/><clipPath id="9910df3587"><path d="M 120 28 L 374.6875 28 L 374.6875 144 L 120 144 Z M 120 28 " clip-rule="nonzero"/></clipPath><clipPath id="f2ef263429"><rect x="0" width="255" y="0" height="116"/></clipPath><clipPath id="a058a6dde7"><path d="M 0.308594 0 L 96.898438 0 L 96.898438 150.125 L 0.308594 150.125 Z M 0.308594 0 " clip-rule="nonzero"/></clipPath></defs><g clip-path="url(#9910df3587)"><g transform="matrix(1, 0, 0, 1, 120, 28)"><g clip-path="url(#f2ef263429)"><g fill="#ffffff" fill-opacity="1"><g transform="translate(1.296306, 77.577309)"><g><path d="M 20.265625 -29.453125 L 27.859375 -25.890625 C 32.046875 -24.140625 34.984375 -22.296875 36.671875 -20.359375 C 38.367188 -18.421875 39.21875 -15.984375 39.21875 -13.046875 C 39.21875 -8.785156 37.664062 -5.375 34.5625 -2.8125 C 31.46875 -0.25 27.234375 1.03125 21.859375 1.03125 C 18.984375 1.03125 15.882812 0.609375 12.5625 -0.234375 C 9.25 -1.078125 6.25 -2.28125 3.5625 -3.84375 L 5.15625 -15.484375 L 8.53125 -15.484375 L 8.53125 -6.9375 C 10.65625 -5.75 12.9375 -4.84375 15.375 -4.21875 C 17.820312 -3.59375 20.046875 -3.28125 22.046875 -3.28125 C 25.546875 -3.28125 28.3125 -4.078125 30.34375 -5.671875 C 32.375 -7.265625 33.390625 -9.316406 33.390625 -11.828125 C 33.390625 -13.578125 32.828125 -15.078125 31.703125 -16.328125 C 30.578125 -17.578125 28.421875 -18.921875 25.234375 -20.359375 L 17.640625 -23.921875 C 14.578125 -25.296875 12.148438 -26.59375 10.359375 -27.8125 C 8.578125 -29.03125 7.296875 -30.375 6.515625 -31.84375 C 5.734375 -33.3125 5.34375 -35.082031 5.34375 -37.15625 C 5.34375 -41.59375 6.953125 -45 10.171875 -47.375 C 13.398438 -49.75 17.671875 -50.9375 22.984375 -50.9375 C 27.546875 -50.9375 32.207031 -50.28125 36.96875 -48.96875 L 36.96875 -36.875 L 33.671875 -36.875 L 32.265625 -45.21875 C 28.953125 -46.28125 25.578125 -46.8125 22.140625 -46.8125 C 18.953125 -46.8125 16.304688 -46.09375 14.203125 -44.65625 C 12.109375 -43.21875 11.0625 -41.21875 11.0625 -38.65625 C 11.0625 -36.71875 11.71875 -35.101562 13.03125 -33.8125 C 14.351562 -32.53125 16.765625 -31.078125 20.265625 -29.453125 Z M 20.265625 -29.453125 "/></g></g></g><g fill="#ffffff" fill-opacity="1"><g transform="translate(43.794291, 77.577309)"><g><path d="M 54.21875 -50 L 54.21875 -46.90625 L 47.9375 -45.6875 L 47.9375 0 L 43.4375 0 L 14.078125 -40.34375 L 14.078125 -3.375 L 21.203125 -3 L 21.203125 0 L 3.28125 0 L 3.28125 -3 L 9.65625 -4.3125 L 9.65625 -46.4375 L 2.90625 -46.90625 L 2.90625 -50 L 14.078125 -50 L 43.4375 -9.65625 L 43.4375 -46.53125 L 36.3125 -46.90625 L 36.3125 -50 Z M 54.21875 -50 "/></g></g></g><g fill="#ffffff" fill-opacity="1"><g transform="translate(98.957182, 77.577309)"><g><path d="M 29.171875 -50.84375 L 47.28125 -4.125 L 52.625 -3 L 52.625 0 L 32.359375 0 L 32.359375 -3 L 40.625 -3.375 L 35.84375 -16.046875 L 15.109375 -16.046875 L 10.40625 -3.46875 L 18.671875 -3 L 18.671875 0 L 0.375 0 L 0.375 -3 L 5.90625 -4.125 L 23.453125 -49.25 Z M 25.421875 -43.4375 L 16.609375 -20.078125 L 34.328125 -20.078125 Z M 25.421875 -43.4375 "/></g></g></g><g fill="#ffffff" fill-opacity="1"><g transform="translate(151.9624, 77.577309)"><g><path d="M 22.796875 -46.90625 L 16.421875 -45.6875 L 16.421875 -3.375 L 23.265625 -3 L 23.265625 0 L 3.84375 0 L 3.84375 -3 L 10.3125 -4.3125 L 10.3125 -46.625 L 2.90625 -46.90625 L 2.90625 -50 L 22.796875 -50 Z M 24.296875 -26.359375 L 42.6875 -3.46875 L 50.65625 -3 L 50.65625 0 L 37.53125 0 L 18.109375 -24.765625 L 37.53125 -46.0625 L 30.296875 -46.71875 L 30.296875 -49.8125 L 49.71875 -49.8125 L 49.71875 -46.71875 L 42.96875 -46.0625 Z M 24.296875 -26.359375 "/></g></g></g><g fill="#ffffff" fill-opacity="1"><g transform="translate(203.185139, 77.577309)"><g><path d="M 30.015625 -21.859375 L 42.5 -3.46875 L 50.5625 -3 L 50.5625 0 L 37.53125 0 L 23.828125 -21.296875 L 15.671875 -21.296875 L 15.671875 -3.375 L 24.203125 -3 L 24.203125 0 L 3.1875 0 L 3.1875 -3 L 9.65625 -4.3125 L 9.65625 -46.53125 L 2.90625 -46.90625 L 2.90625 -50 L 25.421875 -50 C 37.742188 -50 43.90625 -45.3125 43.90625 -35.9375 C 43.90625 -32.300781 42.703125 -29.265625 40.296875 -26.828125 C 37.890625 -24.390625 34.460938 -22.734375 30.015625 -21.859375 Z M 24.765625 -45.875 L 15.671875 -45.875 L 15.671875 -25.140625 L 23.078125 -25.140625 C 27.828125 -25.140625 31.46875 -26.109375 34 -28.046875 C 36.539062 -29.984375 37.8125 -32.582031 37.8125 -35.84375 C 37.8125 -39.09375 36.742188 -41.578125 34.609375 -43.296875 C 32.484375 -45.015625 29.203125 -45.875 24.765625 -45.875 Z M 24.765625 -45.875 "/></g></g></g></g></g></g><g clip-path="url(#a058a6dde7)"><path fill="#ffffff" d="M 58.375 147.609375 C 59.449219 147.890625 59.410156 149.4375 58.308594 149.65625 C 52.609375 150.769531 47.324219 149.898438 42.441406 147.070312 C 37.28125 144.058594 33.746094 139.027344 34.347656 132.90625 C 35.09375 125.402344 41.277344 120.6875 48.511719 119.0625 C 50.855469 118.539062 54.457031 118.539062 59.335938 119.0625 C 66.328125 119.816406 77.097656 121.585938 79.835938 113.976562 C 82.195312 107.421875 76.839844 103.683594 71 103.027344 C 61.023438 101.890625 54.878906 104.128906 40.90625 107.011719 C 27.140625 109.855469 7.941406 105.359375 2.257812 90.503906 C -4.183594 73.664062 6.339844 57.359375 23.976562 55.246094 C 37.910156 53.582031 47.015625 59.589844 59.808594 65.570312 C 65.800781 68.375 73.601562 67.273438 75.984375 60.34375 C 78.261719 53.671875 64.367188 51.046875 61.269531 49.804688 C 50.84375 45.644531 47.886719 38.433594 44.261719 29.058594 C 40.433594 19.171875 48.257812 7.222656 55.875 0.566406 C 56.554688 -0.0234375 57.527344 -0.179688 58.363281 0.179688 L 62.035156 1.753906 C 62.625 2.011719 63.046875 2.5625 63.125 3.203125 C 64.214844 11.707031 65.800781 18.390625 62.871094 25.179688 C 62.089844 27.011719 61.371094 28.957031 60.71875 31.042969 C 60.449219 31.914062 60.640625 32.863281 61.21875 33.566406 C 64.113281 37.140625 69.695312 37.792969 77.25 40.085938 C 87.816406 43.300781 93.15625 49.996094 93.285156 60.152344 C 93.347656 65.058594 91.3125 69.566406 87.203125 73.6875 C 79.914062 81 71.296875 83.742188 61.34375 81.910156 C 53.90625 80.539062 45.734375 75.558594 38.714844 72.675781 C 30.941406 69.488281 19.660156 69.386719 18.316406 79.796875 C 15.90625 98.457031 50.140625 89.414062 58.785156 88.417969 C 71 87.007812 84.011719 87.328125 92.667969 97.097656 C 95.089844 99.839844 96.472656 103.246094 96.820312 107.304688 C 97.484375 115.15625 94.398438 121.445312 87.558594 126.167969 C 75.394531 134.582031 62.101562 131.421875 50.511719 130.894531 C 42.46875 130.523438 42.199219 138.976562 47.835938 142.652344 C 51.5625 145.085938 55.070312 146.738281 58.375 147.609375 Z M 58.375 147.609375 " fill-opacity="1" fill-rule="nonzero"/></g></svg>