<svg xmlns="http://www.w3.org/2000/svg" xmlns:xlink="http://www.w3.org/1999/xlink" width="500" zoomAndPan="magnify" viewBox="0 0 375 374.999991" height="500" preserveAspectRatio="xMidYMid meet" version="1.0"><defs><clipPath id="480a9a9fa3"><path d="M 66.796875 0 L 308.296875 0 L 308.296875 374.96875 L 66.796875 374.96875 Z M 66.796875 0 " clip-rule="nonzero"/></clipPath></defs><g clip-path="url(#480a9a9fa3)"><path fill="#ffffff" d="M 211.828125 368.679688 C 214.511719 369.386719 214.417969 373.253906 211.667969 373.800781 C 197.433594 376.582031 184.222656 374.40625 172.035156 367.335938 C 159.144531 359.820312 150.316406 347.25 151.820312 331.960938 C 153.675781 313.214844 169.125 301.445312 187.195312 297.382812 C 193.050781 296.070312 202.039062 296.070312 214.226562 297.382812 C 231.691406 299.269531 258.589844 303.683594 265.4375 284.683594 C 271.320312 268.308594 257.953125 258.96875 243.367188 257.335938 C 218.449219 254.488281 203.09375 260.085938 168.195312 267.285156 C 133.8125 274.382812 85.863281 263.15625 71.660156 226.050781 C 55.570312 183.988281 81.863281 143.269531 125.910156 137.992188 C 160.710938 133.835938 183.453125 148.835938 215.410156 163.773438 C 230.378906 170.78125 249.859375 168.027344 255.808594 150.722656 C 261.503906 134.058594 226.796875 127.5 219.054688 124.398438 C 193.019531 114.003906 185.628906 95.996094 176.578125 72.582031 C 167.011719 47.886719 186.558594 18.042969 205.589844 1.410156 C 207.285156 -0.0625 209.714844 -0.445312 211.792969 0.449219 L 220.976562 4.386719 C 222.445312 5.023438 223.5 6.398438 223.695312 8 C 226.414062 29.238281 230.378906 45.9375 223.054688 62.886719 C 221.101562 67.460938 219.3125 72.324219 217.679688 77.539062 C 217.007812 79.714844 217.488281 82.082031 218.929688 83.839844 C 226.15625 92.765625 240.101562 94.394531 258.976562 100.121094 C 285.363281 108.148438 298.703125 124.878906 299.023438 150.246094 C 299.183594 162.496094 294.097656 173.753906 283.828125 184.054688 C 265.628906 202.320312 244.101562 209.164062 219.246094 204.589844 C 200.664062 201.167969 180.253906 188.722656 162.726562 181.527344 C 143.3125 173.5625 115.132812 173.304688 111.773438 199.3125 C 105.757812 245.917969 191.257812 223.332031 212.851562 220.839844 C 243.367188 217.320312 275.863281 218.121094 297.488281 242.527344 C 303.53125 249.371094 306.988281 257.878906 307.851562 268.019531 C 309.515625 287.628906 301.804688 303.332031 284.722656 315.136719 C 254.335938 336.152344 221.136719 328.25 192.1875 326.9375 C 172.097656 326.011719 171.425781 347.121094 185.5 356.300781 C 194.808594 362.378906 203.574219 366.507812 211.828125 368.679688 Z M 211.828125 368.679688 " fill-opacity="1" fill-rule="nonzero"/></g></svg>