<svg xmlns="http://www.w3.org/2000/svg" xmlns:xlink="http://www.w3.org/1999/xlink" width="500" zoomAndPan="magnify" viewBox="0 0 375 150.749998" height="201" preserveAspectRatio="xMidYMid meet" version="1.0"><defs><g/><clipPath id="9cc740f0a1"><path d="M 0.308594 0 L 96.898438 0 L 96.898438 150.125 L 0.308594 150.125 Z M 0.308594 0 " clip-rule="nonzero"/></clipPath></defs><g clip-path="url(#9cc740f0a1)"><path fill="#ffffff" d="M 58.375 147.609375 C 59.449219 147.890625 59.410156 149.4375 58.308594 149.65625 C 52.609375 150.769531 47.324219 149.898438 42.441406 147.070312 C 37.28125 144.058594 33.746094 139.027344 34.347656 132.90625 C 35.09375 125.402344 41.277344 120.6875 48.511719 119.0625 C 50.855469 118.539062 54.457031 118.539062 59.335938 119.0625 C 66.328125 119.816406 77.097656 121.585938 79.835938 113.976562 C 82.195312 107.421875 76.839844 103.683594 71 103.027344 C 61.023438 101.890625 54.878906 104.128906 40.90625 107.011719 C 27.140625 109.855469 7.941406 105.359375 2.257812 90.503906 C -4.183594 73.664062 6.339844 57.359375 23.976562 55.246094 C 37.910156 53.582031 47.015625 59.589844 59.808594 65.570312 C 65.800781 68.375 73.601562 67.273438 75.984375 60.34375 C 78.261719 53.671875 64.367188 51.046875 61.269531 49.804688 C 50.84375 45.644531 47.886719 38.433594 44.261719 29.058594 C 40.433594 19.171875 48.257812 7.222656 55.875 0.566406 C 56.554688 -0.0234375 57.527344 -0.179688 58.363281 0.179688 L 62.035156 1.753906 C 62.625 2.011719 63.046875 2.5625 63.125 3.203125 C 64.214844 11.707031 65.800781 18.390625 62.871094 25.179688 C 62.089844 27.011719 61.371094 28.957031 60.71875 31.042969 C 60.449219 31.914062 60.640625 32.863281 61.21875 33.566406 C 64.113281 37.140625 69.695312 37.792969 77.25 40.085938 C 87.816406 43.300781 93.15625 49.996094 93.285156 60.152344 C 93.347656 65.058594 91.3125 69.566406 87.203125 73.6875 C 79.914062 81 71.296875 83.742188 61.34375 81.910156 C 53.90625 80.539062 45.734375 75.558594 38.714844 72.675781 C 30.941406 69.488281 19.660156 69.386719 18.316406 79.796875 C 15.90625 98.457031 50.140625 89.414062 58.785156 88.417969 C 71 87.007812 84.011719 87.328125 92.667969 97.097656 C 95.089844 99.839844 96.472656 103.246094 96.820312 107.304688 C 97.484375 115.15625 94.398438 121.445312 87.558594 126.167969 C 75.394531 134.582031 62.101562 131.421875 50.511719 130.894531 C 42.46875 130.523438 42.199219 138.976562 47.835938 142.652344 C 51.5625 145.085938 55.070312 146.738281 58.375 147.609375 Z M 58.375 147.609375 " fill-opacity="1" fill-rule="nonzero"/></g><g fill="#ffffff" fill-opacity="1"><g transform="translate(124.274861, 110.817952)"><g><path d="M 46.953125 -18.203125 C 46.953125 -12.285156 44.820312 -7.625 40.5625 -4.21875 C 36.300781 -0.8125 30.375 0.890625 22.78125 0.890625 C 15.78125 0.890625 9.59375 -0.421875 4.21875 -3.046875 L 4.21875 -15.96875 C 8.644531 -13.988281 12.390625 -12.59375 15.453125 -11.78125 C 18.515625 -10.976562 21.316406 -10.578125 23.859375 -10.578125 C 26.910156 -10.578125 29.25 -11.160156 30.875 -12.328125 C 32.5 -13.492188 33.3125 -15.226562 33.3125 -17.53125 C 33.3125 -18.820312 32.953125 -19.96875 32.234375 -20.96875 C 31.523438 -21.96875 30.472656 -22.929688 29.078125 -23.859375 C 27.691406 -24.785156 24.859375 -26.265625 20.578125 -28.296875 C 16.578125 -30.179688 13.570312 -31.988281 11.5625 -33.71875 C 9.5625 -35.457031 7.960938 -37.476562 6.765625 -39.78125 C 5.578125 -42.082031 4.984375 -44.769531 4.984375 -47.84375 C 4.984375 -53.644531 6.945312 -58.203125 10.875 -61.515625 C 14.800781 -64.835938 20.234375 -66.5 27.171875 -66.5 C 30.578125 -66.5 33.828125 -66.09375 36.921875 -65.28125 C 40.023438 -64.476562 43.265625 -63.347656 46.640625 -61.890625 L 42.15625 -51.078125 C 38.65625 -52.515625 35.757812 -53.515625 33.46875 -54.078125 C 31.1875 -54.648438 28.941406 -54.9375 26.734375 -54.9375 C 24.097656 -54.9375 22.078125 -54.320312 20.671875 -53.09375 C 19.265625 -51.875 18.5625 -50.273438 18.5625 -48.296875 C 18.5625 -47.066406 18.84375 -45.992188 19.40625 -45.078125 C 19.976562 -44.171875 20.882812 -43.289062 22.125 -42.4375 C 23.375 -41.59375 26.3125 -40.0625 30.9375 -37.84375 C 37.070312 -34.914062 41.273438 -31.976562 43.546875 -29.03125 C 45.816406 -26.09375 46.953125 -22.484375 46.953125 -18.203125 Z M 46.953125 -18.203125 "/></g></g></g><g fill="#ffffff" fill-opacity="1"><g transform="translate(171.460203, 110.817952)"><g><path d="M 53.453125 0 L 39.78125 0 L 39.78125 -29.28125 C 39.78125 -32.894531 39.132812 -35.609375 37.84375 -37.421875 C 36.5625 -39.234375 34.515625 -40.140625 31.703125 -40.140625 C 27.878906 -40.140625 25.113281 -38.859375 23.40625 -36.296875 C 21.707031 -33.742188 20.859375 -29.507812 20.859375 -23.59375 L 20.859375 0 L 7.171875 0 L 7.171875 -50.140625 L 17.625 -50.140625 L 19.46875 -43.71875 L 20.21875 -43.71875 C 21.75 -46.144531 23.851562 -47.976562 26.53125 -49.21875 C 29.207031 -50.457031 32.25 -51.078125 35.65625 -51.078125 C 41.476562 -51.078125 45.898438 -49.5 48.921875 -46.34375 C 51.941406 -43.1875 53.453125 -38.632812 53.453125 -32.6875 Z M 53.453125 0 "/></g></g></g><g fill="#ffffff" fill-opacity="1"><g transform="translate(228.421469, 110.817952)"><g><path d="M 39.015625 0 L 36.375 -6.8125 L 36.015625 -6.8125 C 33.710938 -3.914062 31.34375 -1.90625 28.90625 -0.78125 C 26.46875 0.332031 23.289062 0.890625 19.375 0.890625 C 14.5625 0.890625 10.769531 -0.484375 8 -3.234375 C 5.238281 -5.984375 3.859375 -9.898438 3.859375 -14.984375 C 3.859375 -20.304688 5.71875 -24.226562 9.4375 -26.75 C 13.15625 -29.28125 18.769531 -30.675781 26.28125 -30.9375 L 34.984375 -31.21875 L 34.984375 -33.40625 C 34.984375 -38.488281 32.378906 -41.03125 27.171875 -41.03125 C 23.171875 -41.03125 18.460938 -39.820312 13.046875 -37.40625 L 8.515625 -46.640625 C 14.285156 -49.660156 20.6875 -51.171875 27.71875 -51.171875 C 34.445312 -51.171875 39.601562 -49.703125 43.1875 -46.765625 C 46.769531 -43.835938 48.5625 -39.382812 48.5625 -33.40625 L 48.5625 0 Z M 34.984375 -23.234375 L 29.6875 -23.046875 C 25.707031 -22.929688 22.742188 -22.210938 20.796875 -20.890625 C 18.859375 -19.578125 17.890625 -17.578125 17.890625 -14.890625 C 17.890625 -11.035156 20.101562 -9.109375 24.53125 -9.109375 C 27.695312 -9.109375 30.226562 -10.019531 32.125 -11.84375 C 34.03125 -13.664062 34.984375 -16.085938 34.984375 -19.109375 Z M 34.984375 -23.234375 "/></g></g></g><g fill="#ffffff" fill-opacity="1"><g transform="translate(280.494773, 110.817952)"><g><path d="M 20.3125 -27.265625 L 26.28125 -34.890625 L 40.3125 -50.140625 L 55.75 -50.140625 L 35.828125 -28.390625 L 56.953125 0 L 41.171875 0 L 26.734375 -20.3125 L 20.859375 -15.609375 L 20.859375 0 L 7.171875 0 L 7.171875 -69.78125 L 20.859375 -69.78125 L 20.859375 -38.65625 L 20.140625 -27.265625 Z M 20.3125 -27.265625 "/></g></g></g><g fill="#ffffff" fill-opacity="1"><g transform="translate(334.047907, 110.817952)"><g><path d="M 35.15625 -51.078125 C 37.007812 -51.078125 38.550781 -50.941406 39.78125 -50.671875 L 38.75 -37.84375 C 37.644531 -38.144531 36.296875 -38.296875 34.703125 -38.296875 C 30.335938 -38.296875 26.9375 -37.175781 24.5 -34.9375 C 22.070312 -32.695312 20.859375 -29.554688 20.859375 -25.515625 L 20.859375 0 L 7.171875 0 L 7.171875 -50.140625 L 17.53125 -50.140625 L 19.546875 -41.703125 L 20.21875 -41.703125 C 21.78125 -44.515625 23.882812 -46.78125 26.53125 -48.5 C 29.175781 -50.21875 32.050781 -51.078125 35.15625 -51.078125 Z M 35.15625 -51.078125 "/></g></g></g></svg>